  0
SECTION
  2
HEADER
  9
$ACADVER
  1
AC1009
  9
$INSBASE
 10
0.0
 20
0.0
 30
0.0
  9
$EXTMIN
 10
0.0
 20
0.0
 30
0.0
  9
$EXTMAX
 10
0.0
 20
0.0
 30
0.0
  0
ENDSEC
  0
SECTION
  2
TABLES
  0
TABLE
  2
VPORT
 70
0
  0
ENDTAB
  0
TABLE
  2
LTYPE
 70
1
  0
LTYPE
  2
CONTINUOUS
 70
0
  3
Solid line
 72
65
 73
0
 40
0.0
  0
ENDTAB
  0
TABLE
  2
LAYER
 70
1
  0
LAYER
  2
0
 70
64
 62
7
  6
continuous
  0
ENDTAB
  0
TABLE
  2
STYLE
 70
1
  0
STYLE
  2
STANDARD
 70
0
 40
0
 41
1.0
 50
0.0
 71
0
 42
1
 3
ARIAL.TTF
 4

  0
ENDTAB
  0
TABLE
  2
VIEW
 70
0
  0
ENDTAB
  0
ENDSEC
  0
SECTION
  2
BLOCKS
  0
BLOCK
  8
0
  2
SKETCH029
 70
0
 10
0.0
 20
0.0
 30
0.0
  3
SKETCH029
  0
POLYLINE
  8
0
 62
7
 70
1
 66
1
 10
0.0
 20
0.0
 30
0.0
  0
VERTEX
  8
0
 10
-6.0
 20
-2.9418918918918946
 30
0.0
  0
VERTEX
  8
0
 10
-8.881784197001252e-16
 20
-2.9418918918918946
 30
0.0
  0
VERTEX
  8
0
 10
-8.881784197001252e-16
 20
-8.941891891891894
 30
0.0
  0
VERTEX
  8
0
 10
-6.0
 20
-8.941891891891894
 30
0.0
  0
SEQEND
  8
0
  0
CIRCLE
  8
0
 62
7
 10
-3.0
 20
-5.941891891891894
 30
0.0
 40
1.75
  0
POLYLINE
  8
0
 62
7
 70
1
 66
1
 10
0.0
 20
0.0
 30
0.0
  0
VERTEX
  8
0
 10
-6.0
 20
-10.120270270270273
 30
0.0
  0
VERTEX
  8
0
 10
0.0
 20
-10.120270270270273
 30
0.0
  0
VERTEX
  8
0
 10
0.0
 20
-16.12027027027027
 30
0.0
  0
VERTEX
  8
0
 10
-6.0
 20
-16.12027027027027
 30
0.0
  0
SEQEND
  8
0
  0
CIRCLE
  8
0
 62
7
 10
-3.000000000000001
 20
-13.120270270270273
 30
0.0
 40
1.75
  0
POLYLINE
  8
0
 62
7
 70
1
 66
1
 10
0.0
 20
0.0
 30
0.0
  0
VERTEX
  8
0
 10
-6.0
 20
-17.29864864864865
 30
0.0
  0
VERTEX
  8
0
 10
0.0
 20
-17.29864864864865
 30
0.0
  0
VERTEX
  8
0
 10
0.0
 20
-23.29864864864865
 30
0.0
  0
VERTEX
  8
0
 10
-6.0
 20
-23.29864864864865
 30
0.0
  0
SEQEND
  8
0
  0
CIRCLE
  8
0
 62
7
 10
-2.9999999999999996
 20
-20.29864864864865
 30
0.0
 40
1.75
  0
POLYLINE
  8
0
 62
7
 70
1
 66
1
 10
0.0
 20
0.0
 30
0.0
  0
VERTEX
  8
0
 10
-6.0
 20
-24.47702702702703
 30
0.0
  0
VERTEX
  8
0
 10
0.0
 20
-24.47702702702703
 30
0.0
  0
VERTEX
  8
0
 10
0.0
 20
-30.47702702702703
 30
0.0
  0
VERTEX
  8
0
 10
-6.0
 20
-30.47702702702703
 30
0.0
  0
SEQEND
  8
0
  0
CIRCLE
  8
0
 62
7
 10
-2.9999999999999987
 20
-27.477027027027027
 30
0.0
 40
1.75
  0
POLYLINE
  8
0
 62
7
 70
1
 66
1
 10
0.0
 20
0.0
 30
0.0
  0
VERTEX
  8
0
 10
-6.0
 20
-31.655405405405407
 30
0.0
  0
VERTEX
  8
0
 10
0.0
 20
-31.655405405405407
 30
0.0
  0
VERTEX
  8
0
 10
0.0
 20
-37.65540540540541
 30
0.0
  0
VERTEX
  8
0
 10
-6.0
 20
-37.65540540540541
 30
0.0
  0
SEQEND
  8
0
  0
CIRCLE
  8
0
 62
7
 10
-3.000000000000001
 20
-34.65540540540541
 30
0.0
 40
1.75
  0
POLYLINE
  8
0
 62
7
 70
1
 66
1
 10
0.0
 20
0.0
 30
0.0
  0
VERTEX
  8
0
 10
-6.0
 20
-38.83378378378379
 30
0.0
  0
VERTEX
  8
0
 10
0.0
 20
-38.83378378378379
 30
0.0
  0
VERTEX
  8
0
 10
0.0
 20
-44.83378378378379
 30
0.0
  0
VERTEX
  8
0
 10
-6.0
 20
-44.83378378378379
 30
0.0
  0
SEQEND
  8
0
  0
CIRCLE
  8
0
 62
7
 10
-3.000000000000002
 20
-41.83378378378379
 30
0.0
 40
1.75
  0
POLYLINE
  8
0
 62
7
 70
1
 66
1
 10
0.0
 20
0.0
 30
0.0
  0
VERTEX
  8
0
 10
-6.0
 20
-46.01216216216216
 30
0.0
  0
VERTEX
  8
0
 10
0.0
 20
-46.01216216216216
 30
0.0
  0
VERTEX
  8
0
 10
0.0
 20
-52.01216216216216
 30
0.0
  0
VERTEX
  8
0
 10
-6.0
 20
-52.01216216216216
 30
0.0
  0
SEQEND
  8
0
  0
CIRCLE
  8
0
 62
7
 10
-3.0
 20
-49.01216216216216
 30
0.0
 40
1.75
  0
POLYLINE
  8
0
 62
7
 70
1
 66
1
 10
0.0
 20
0.0
 30
0.0
  0
VERTEX
  8
0
 10
-6.0
 20
-53.190540540540546
 30
0.0
  0
VERTEX
  8
0
 10
0.0
 20
-53.190540540540546
 30
0.0
  0
VERTEX
  8
0
 10
0.0
 20
-59.190540540540546
 30
0.0
  0
VERTEX
  8
0
 10
-6.0
 20
-59.190540540540546
 30
0.0
  0
SEQEND
  8
0
  0
CIRCLE
  8
0
 62
7
 10
-3.0
 20
-56.190540540540546
 30
0.0
 40
1.75
  0
POLYLINE
  8
0
 62
7
 70
1
 66
1
 10
0.0
 20
0.0
 30
0.0
  0
VERTEX
  8
0
 10
-6.0
 20
-60.36891891891892
 30
0.0
  0
VERTEX
  8
0
 10
0.0
 20
-60.36891891891892
 30
0.0
  0
VERTEX
  8
0
 10
0.0
 20
-66.36891891891892
 30
0.0
  0
VERTEX
  8
0
 10
-6.0
 20
-66.36891891891892
 30
0.0
  0
SEQEND
  8
0
  0
CIRCLE
  8
0
 62
7
 10
-3.0
 20
-63.36891891891892
 30
0.0
 40
1.75
  0
POLYLINE
  8
0
 62
7
 70
1
 66
1
 10
0.0
 20
0.0
 30
0.0
  0
VERTEX
  8
0
 10
36.599999999999994
 20
-6.531081081081079
 30
0.0
  0
VERTEX
  8
0
 10
42.599999999999994
 20
-6.531081081081079
 30
0.0
  0
VERTEX
  8
0
 10
42.599999999999994
 20
-12.53108108108108
 30
0.0
  0
VERTEX
  8
0
 10
36.599999999999994
 20
-12.53108108108108
 30
0.0
  0
SEQEND
  8
0
  0
CIRCLE
  8
0
 62
7
 10
39.599999999999994
 20
-9.53108108108108
 30
0.0
 40
1.75
  0
POLYLINE
  8
0
 62
7
 70
1
 66
1
 10
0.0
 20
0.0
 30
0.0
  0
VERTEX
  8
0
 10
36.599999999999994
 20
-13.709459459459456
 30
0.0
  0
VERTEX
  8
0
 10
42.599999999999994
 20
-13.709459459459456
 30
0.0
  0
VERTEX
  8
0
 10
42.599999999999994
 20
-19.709459459459456
 30
0.0
  0
VERTEX
  8
0
 10
36.599999999999994
 20
-19.709459459459456
 30
0.0
  0
SEQEND
  8
0
  0
CIRCLE
  8
0
 62
7
 10
39.6
 20
-16.709459459459453
 30
0.0
 40
1.75
  0
POLYLINE
  8
0
 62
7
 70
1
 66
1
 10
0.0
 20
0.0
 30
0.0
  0
VERTEX
  8
0
 10
36.599999999999994
 20
-20.887837837837832
 30
0.0
  0
VERTEX
  8
0
 10
42.599999999999994
 20
-20.887837837837832
 30
0.0
  0
VERTEX
  8
0
 10
42.599999999999994
 20
-26.887837837837832
 30
0.0
  0
VERTEX
  8
0
 10
36.599999999999994
 20
-26.887837837837832
 30
0.0
  0
SEQEND
  8
0
  0
CIRCLE
  8
0
 62
7
 10
39.60000000000001
 20
-23.887837837837825
 30
0.0
 40
1.75
  0
POLYLINE
  8
0
 62
7
 70
1
 66
1
 10
0.0
 20
0.0
 30
0.0
  0
VERTEX
  8
0
 10
36.6
 20
-28.066216216216212
 30
0.0
  0
VERTEX
  8
0
 10
42.6
 20
-28.066216216216212
 30
0.0
  0
VERTEX
  8
0
 10
42.6
 20
-34.06621621621621
 30
0.0
  0
VERTEX
  8
0
 10
36.6
 20
-34.06621621621621
 30
0.0
  0
SEQEND
  8
0
  0
CIRCLE
  8
0
 62
7
 10
39.59999999999999
 20
-31.066216216216223
 30
0.0
 40
1.75
  0
POLYLINE
  8
0
 62
7
 70
1
 66
1
 10
0.0
 20
0.0
 30
0.0
  0
VERTEX
  8
0
 10
36.6
 20
-35.24459459459459
 30
0.0
  0
VERTEX
  8
0
 10
42.6
 20
-35.24459459459459
 30
0.0
  0
VERTEX
  8
0
 10
42.6
 20
-41.24459459459459
 30
0.0
  0
VERTEX
  8
0
 10
36.6
 20
-41.24459459459459
 30
0.0
  0
SEQEND
  8
0
  0
CIRCLE
  8
0
 62
7
 10
39.6
 20
-38.24459459459459
 30
0.0
 40
1.75
  0
POLYLINE
  8
0
 62
7
 70
1
 66
1
 10
0.0
 20
0.0
 30
0.0
  0
VERTEX
  8
0
 10
36.6
 20
-42.422972972972964
 30
0.0
  0
VERTEX
  8
0
 10
42.6
 20
-42.422972972972964
 30
0.0
  0
VERTEX
  8
0
 10
42.6
 20
-48.422972972972964
 30
0.0
  0
VERTEX
  8
0
 10
36.6
 20
-48.422972972972964
 30
0.0
  0
SEQEND
  8
0
  0
CIRCLE
  8
0
 62
7
 10
39.600000000000016
 20
-45.42297297297296
 30
0.0
 40
1.75
  0
POLYLINE
  8
0
 62
7
 70
1
 66
1
 10
0.0
 20
0.0
 30
0.0
  0
VERTEX
  8
0
 10
36.6
 20
-49.60135135135134
 30
0.0
  0
VERTEX
  8
0
 10
42.6
 20
-49.60135135135134
 30
0.0
  0
VERTEX
  8
0
 10
42.6
 20
-55.60135135135134
 30
0.0
  0
VERTEX
  8
0
 10
36.6
 20
-55.60135135135134
 30
0.0
  0
SEQEND
  8
0
  0
CIRCLE
  8
0
 62
7
 10
39.600000000000044
 20
-52.6013513513513
 30
0.0
 40
1.75
  0
POLYLINE
  8
0
 62
7
 70
1
 66
1
 10
0.0
 20
0.0
 30
0.0
  0
VERTEX
  8
0
 10
36.6
 20
-56.77972972972972
 30
0.0
  0
VERTEX
  8
0
 10
42.6
 20
-56.77972972972972
 30
0.0
  0
VERTEX
  8
0
 10
42.6
 20
-62.77972972972972
 30
0.0
  0
VERTEX
  8
0
 10
36.6
 20
-62.77972972972972
 30
0.0
  0
SEQEND
  8
0
  0
CIRCLE
  8
0
 62
7
 10
39.6
 20
-59.77972972972972
 30
0.0
 40
1.75
  0
POLYLINE
  8
0
 62
7
 70
1
 66
1
 10
0.0
 20
0.0
 30
0.0
  0
VERTEX
  8
0
 10
36.6
 20
-63.9581081081081
 30
0.0
  0
VERTEX
  8
0
 10
42.6
 20
-63.9581081081081
 30
0.0
  0
VERTEX
  8
0
 10
42.6
 20
-69.95810810810809
 30
0.0
  0
VERTEX
  8
0
 10
36.6
 20
-69.95810810810809
 30
0.0
  0
SEQEND
  8
0
  0
CIRCLE
  8
0
 62
7
 10
39.599999999999994
 20
-66.9581081081081
 30
0.0
 40
1.75
  0
POLYLINE
  8
0
 62
7
 70
1
 66
1
 10
0.0
 20
0.0
 30
0.0
  0
VERTEX
  8
0
 10
-7.5
 20
-1.0384271247461925
 30
0.0
  0
VERTEX
  8
0
 10
1.0384271247461925
 20
7.5
 30
0.0
  0
VERTEX
  8
0
 10
85.36157287525378
 20
7.5
 30
0.0
  0
VERTEX
  8
0
 10
93.89999999999998
 20
-1.038427124746189
 30
0.0
  0
VERTEX
  8
0
 10
93.89999999999998
 20
-71.86157287525383
 30
0.0
  0
VERTEX
  8
0
 10
85.36157287525378
 20
-80.4
 30
0.0
  0
VERTEX
  8
0
 10
1.0384271247461925
 20
-80.4
 30
0.0
  0
VERTEX
  8
0
 10
-7.5
 20
-71.86157287525381
 30
0.0
  0
SEQEND
  8
0
  0
CIRCLE
  8
0
 62
7
 10
4.330000000000004
 20
-51.320000000000014
 30
0.0
 40
0.499872
  0
CIRCLE
  8
0
 62
7
 10
6.869999999999967
 20
-51.320000000000014
 30
0.0
 40
0.499872
  0
CIRCLE
  8
0
 62
7
 10
9.40999999999994
 20
-51.320000000000135
 30
0.0
 40
0.499872
  0
CIRCLE
  8
0
 62
7
 10
11.949999999999909
 20
-51.32000000000023
 30
0.0
 40
0.499872
  0
CIRCLE
  8
0
 62
7
 10
14.489999999999878
 20
-51.32000000000032
 30
0.0
 40
0.499872
  0
CIRCLE
  8
0
 62
7
 10
17.029999999999845
 20
-51.320000000000405
 30
0.0
 40
0.499872
  0
CIRCLE
  8
0
 62
7
 10
19.569999999999816
 20
-51.32000000000049
 30
0.0
 40
0.499872
  0
CIRCLE
  8
0
 62
7
 10
22.109999999999783
 20
-51.320000000000576
 30
0.0
 40
0.499872
  0
CIRCLE
  8
0
 62
7
 10
24.64999999999975
 20
-51.32000000000066
 30
0.0
 40
0.499872
  0
CIRCLE
  8
0
 62
7
 10
27.18999999999972
 20
-51.32000000000075
 30
0.0
 40
0.499872
  0
CIRCLE
  8
0
 62
7
 10
29.729999999999684
 20
-51.32000000000078
 30
0.0
 40
0.499872
  0
CIRCLE
  8
0
 62
7
 10
32.27
 20
-51.320000000000014
 30
0.0
 40
0.499872
  0
CIRCLE
  8
0
 62
7
 10
3.949000000000004
 20
-67.70000000000002
 30
0.0
 40
1.27
  0
CIRCLE
  8
0
 62
7
 10
32.651
 20
-67.70000000000002
 30
0.0
 40
1.27
  0
POLYLINE
  8
0
 62
7
 70
1
 66
1
 10
0.0
 20
0.0
 30
0.0
  0
VERTEX
  8
0
 10
3.604996807212512
 20
-70.49999999999793
 30
0.0
  0
VERTEX
  8
0
 10
32.90499518490626
 20
-70.49999999999483
 30
0.0
 42
0.41421227159121377
  0
VERTEX
  8
0
 10
35.44499999994893
 20
-67.96001600889156
 30
0.0
  0
VERTEX
  8
0
 10
35.445
 20
-48.910000000000004
 30
0.0
  0
VERTEX
  8
0
 10
1.1550000000005909
 20
-48.910000000000004
 30
0.0
  0
VERTEX
  8
0
 10
1.1550000000005927
 20
-68.05000170352865
 30
0.0
 42
0.4142129770271793
  0
SEQEND
  8
0
  0
CIRCLE
  8
0
 62
7
 10
49.44999999999997
 20
-50.599999999999994
 30
0.0
 40
0.5
  0
CIRCLE
  8
0
 62
7
 10
51.989999999999974
 20
-50.599999999999994
 30
0.0
 40
0.5
  0
CIRCLE
  8
0
 62
7
 10
54.52999999999998
 20
-50.599999999999994
 30
0.0
 40
0.5
  0
CIRCLE
  8
0
 62
7
 10
57.069999999999986
 20
-50.599999999999994
 30
0.0
 40
0.5
  0
CIRCLE
  8
0
 62
7
 10
59.60999999999999
 20
-50.599999999999994
 30
0.0
 40
0.5
  0
CIRCLE
  8
0
 62
7
 10
62.15
 20
-50.599999999999994
 30
0.0
 40
0.5
  0
CIRCLE
  8
0
 62
7
 10
64.69000000000001
 20
-50.599999999999994
 30
0.0
 40
0.5
  0
CIRCLE
  8
0
 62
7
 10
67.23000000000002
 20
-50.599999999999994
 30
0.0
 40
0.5
  0
CIRCLE
  8
0
 62
7
 10
69.77000000000002
 20
-50.599999999999994
 30
0.0
 40
0.5
  0
CIRCLE
  8
0
 62
7
 10
72.31000000000003
 20
-50.599999999999994
 30
0.0
 40
0.5
  0
CIRCLE
  8
0
 62
7
 10
74.85000000000004
 20
-50.599999999999994
 30
0.0
 40
0.5
  0
CIRCLE
  8
0
 62
7
 10
77.39000000000004
 20
-50.599999999999994
 30
0.0
 40
0.5
  0
CIRCLE
  8
0
 62
7
 10
79.93000000000005
 20
-50.599999999999994
 30
0.0
 40
0.5
  0
CIRCLE
  8
0
 62
7
 10
82.47000000000006
 20
-50.599999999999994
 30
0.0
 40
0.5
  0
CIRCLE
  8
0
 62
7
 10
85.01000000000006
 20
-50.599999999999994
 30
0.0
 40
0.5
  0
CIRCLE
  8
0
 62
7
 10
87.55000000000007
 20
-50.599999999999994
 30
0.0
 40
0.5
  0
CIRCLE
  8
0
 62
7
 10
49.44999999999997
 20
-70.92000000000002
 30
0.0
 40
0.499999999999998
  0
CIRCLE
  8
0
 62
7
 10
52.55444444444491
 20
-70.92000000000002
 30
0.0
 40
0.499999999999998
  0
CIRCLE
  8
0
 62
7
 10
55.658888888890004
 20
-70.92000000000121
 30
0.0
 40
0.499999999999998
  0
CIRCLE
  8
0
 62
7
 10
58.76333333333503
 20
-70.92000000000205
 30
0.0
 40
0.499999999999998
  0
CIRCLE
  8
0
 62
7
 10
61.867777777780034
 20
-70.92000000000287
 30
0.0
 40
0.499999999999998
  0
CIRCLE
  8
0
 62
7
 10
64.97222222222506
 20
-70.92000000000368
 30
0.0
 40
0.499999999999998
  0
CIRCLE
  8
0
 62
7
 10
68.07666666667006
 20
-70.9200000000045
 30
0.0
 40
0.499999999999998
  0
CIRCLE
  8
0
 62
7
 10
71.18111111111509
 20
-70.92000000000533
 30
0.0
 40
0.499999999999998
  0
CIRCLE
  8
0
 62
7
 10
74.2855555555601
 20
-70.92000000000613
 30
0.0
 40
0.499999999999998
  0
POLYLINE
  8
0
 62
7
 70
1
 66
1
 10
0.0
 20
0.0
 30
0.0
  0
VERTEX
  8
0
 10
77.89000000000254
 20
-70.92000000000324
 30
0.0
 42
1.633123935319537e+16
  0
VERTEX
  8
0
 10
77.89000000000254
 20
-70.92000000000324
 30
0.0
 42
1.633123935319537e+16
  0
SEQEND
  8
0
  0
CIRCLE
  8
0
 62
7
 10
80.49444444445
 20
-70.9200000000068
 30
0.0
 40
0.499999999999998
  0
CIRCLE
  8
0
 62
7
 10
91.35999999999997
 20
-69.65
 30
0.0
 40
1.27
  0
CIRCLE
  8
0
 62
7
 10
91.35999999999997
 20
-51.870000000000005
 30
0.0
 40
1.27
  0
CIRCLE
  8
0
 62
7
 10
45.63999999999997
 20
-51.870000000000005
 30
0.0
 40
1.25
  0
CIRCLE
  8
0
 62
7
 10
45.63999999999997
 20
-69.65
 30
0.0
 40
1.25
  0
POLYLINE
  8
0
 62
7
 70
1
 66
1
 10
0.0
 20
0.0
 30
0.0
  0
VERTEX
  8
0
 10
45.63999999999997
 20
-49.330000000000005
 30
0.0
  0
VERTEX
  8
0
 10
91.35999999999997
 20
-49.33
 30
0.0
 42
-0.41421356237309426
  0
VERTEX
  8
0
 10
93.89999999999999
 20
-51.870000000000005
 30
0.0
  0
VERTEX
  8
0
 10
93.9
 20
-58.220000000000006
 30
0.0
  0
VERTEX
  8
0
 10
93.39200000000001
 20
-58.72800000000001
 30
0.0
  0
VERTEX
  8
0
 10
93.39200000000001
 20
-62.79200000000001
 30
0.0
  0
VERTEX
  8
0
 10
93.9
 20
-63.300000000000004
 30
0.0
  0
VERTEX
  8
0
 10
93.89999999999998
 20
-69.65
 30
0.0
 42
-0.41421356237309453
  0
VERTEX
  8
0
 10
91.35999999999997
 20
-72.19000000000001
 30
0.0
  0
VERTEX
  8
0
 10
45.63999999999997
 20
-72.19000000000001
 30
0.0
 42
-0.41421356237309453
  0
VERTEX
  8
0
 10
43.09999999999997
 20
-69.65
 30
0.0
  0
VERTEX
  8
0
 10
43.09999999999997
 20
-51.870000000000005
 30
0.0
 42
-0.4142135623730949
  0
SEQEND
  8
0
  0
POLYLINE
  8
0
 62
7
 70
1
 66
1
 10
0.0
 20
0.0
 30
0.0
  0
VERTEX
  8
0
 10
86.0
 20
-4.0
 30
0.0
  0
VERTEX
  8
0
 10
87.99999999999999
 20
-3.9999999999999973
 30
0.0
 42
1.0000000000000022
  0
VERTEX
  8
0
 10
87.99999999999999
 20
1.9999999999999993
 30
0.0
  0
VERTEX
  8
0
 10
54.0
 20
1.9999999999999991
 30
0.0
 42
1.0000000000000002
  0
VERTEX
  8
0
 10
54.0
 20
-3.999999999999999
 30
0.0
  0
VERTEX
  8
0
 10
56.0
 20
-4.0
 30
0.0
  0
VERTEX
  8
0
 10
56.0
 20
-31.0
 30
0.0
  0
VERTEX
  8
0
 10
54.0
 20
-31.00000000000003
 30
0.0
 42
1.0000000000000002
  0
VERTEX
  8
0
 10
54.0
 20
-36.99999999999997
 30
0.0
  0
VERTEX
  8
0
 10
88.0
 20
-37.00000000000001
 30
0.0
 42
1.0000000000000004
  0
VERTEX
  8
0
 10
88.0
 20
-30.999999999999993
 30
0.0
  0
VERTEX
  8
0
 10
86.0
 20
-31.0
 30
0.0
  0
SEQEND
  8
0
  0
CIRCLE
  8
0
 62
7
 10
54.0
 20
-1.0
 30
0.0
 40
1.5
  0
CIRCLE
  8
0
 62
7
 10
87.99999999999999
 20
-0.9999999999999989
 30
0.0
 40
1.5
  0
CIRCLE
  8
0
 62
7
 10
88.0
 20
-34.0
 30
0.0
 40
1.5
  0
CIRCLE
  8
0
 62
7
 10
54.0
 20
-34.0
 30
0.0
 40
1.5
  0
CIRCLE
  8
0
 62
7
 10
51.99999999999998
 20
-9.464285714285717
 30
0.0
 40
1.75
  0
POLYLINE
  8
0
 62
7
 70
1
 66
1
 10
0.0
 20
0.0
 30
0.0
  0
VERTEX
  8
0
 10
48.99999999999998
 20
-6.464285714285718
 30
0.0
  0
VERTEX
  8
0
 10
54.99999999999998
 20
-6.464285714285718
 30
0.0
  0
VERTEX
  8
0
 10
54.99999999999998
 20
-12.464285714285719
 30
0.0
  0
VERTEX
  8
0
 10
48.99999999999998
 20
-12.464285714285719
 30
0.0
  0
SEQEND
  8
0
  0
CIRCLE
  8
0
 62
7
 10
89.99999999999999
 20
-12.978571428571444
 30
0.0
 40
1.75
  0
POLYLINE
  8
0
 62
7
 70
1
 66
1
 10
0.0
 20
0.0
 30
0.0
  0
VERTEX
  8
0
 10
86.99999999999997
 20
-9.97857142857146
 30
0.0
  0
VERTEX
  8
0
 10
92.99999999999997
 20
-9.97857142857146
 30
0.0
  0
VERTEX
  8
0
 10
92.99999999999997
 20
-15.97857142857146
 30
0.0
  0
VERTEX
  8
0
 10
86.99999999999997
 20
-15.97857142857146
 30
0.0
  0
SEQEND
  8
0
  0
CIRCLE
  8
0
 62
7
 10
51.99999999999998
 20
-16.492857142857147
 30
0.0
 40
1.75
  0
POLYLINE
  8
0
 62
7
 70
1
 66
1
 10
0.0
 20
0.0
 30
0.0
  0
VERTEX
  8
0
 10
48.99999999999998
 20
-13.492857142857144
 30
0.0
  0
VERTEX
  8
0
 10
54.99999999999998
 20
-13.492857142857144
 30
0.0
  0
VERTEX
  8
0
 10
54.99999999999998
 20
-19.492857142857144
 30
0.0
  0
VERTEX
  8
0
 10
48.99999999999998
 20
-19.492857142857144
 30
0.0
  0
SEQEND
  8
0
  0
CIRCLE
  8
0
 62
7
 10
51.99999999999998
 20
-23.521428571428576
 30
0.0
 40
1.75
  0
POLYLINE
  8
0
 62
7
 70
1
 66
1
 10
0.0
 20
0.0
 30
0.0
  0
VERTEX
  8
0
 10
48.999999999999964
 20
-20.521428571428586
 30
0.0
  0
VERTEX
  8
0
 10
54.999999999999964
 20
-20.521428571428586
 30
0.0
  0
VERTEX
  8
0
 10
54.999999999999964
 20
-26.521428571428586
 30
0.0
  0
VERTEX
  8
0
 10
48.999999999999964
 20
-26.521428571428586
 30
0.0
  0
SEQEND
  8
0
  0
CIRCLE
  8
0
 62
7
 10
89.99999999999999
 20
-20.007142857142874
 30
0.0
 40
1.75
  0
POLYLINE
  8
0
 62
7
 70
1
 66
1
 10
0.0
 20
0.0
 30
0.0
  0
VERTEX
  8
0
 10
86.99999999999999
 20
-17.007142857142867
 30
0.0
  0
VERTEX
  8
0
 10
92.99999999999999
 20
-17.007142857142867
 30
0.0
  0
VERTEX
  8
0
 10
92.99999999999999
 20
-23.007142857142867
 30
0.0
  0
VERTEX
  8
0
 10
86.99999999999999
 20
-23.007142857142867
 30
0.0
  0
SEQEND
  8
0
  0
CIRCLE
  8
0
 62
7
 10
90.00000000000054
 20
-27.035714285806584
 30
0.0
 40
1.75
  0
POLYLINE
  8
0
 62
7
 70
1
 66
1
 10
0.0
 20
0.0
 30
0.0
  0
VERTEX
  8
0
 10
87.00000000000051
 20
-24.03571428580662
 30
0.0
  0
VERTEX
  8
0
 10
93.00000000000051
 20
-24.03571428580662
 30
0.0
  0
VERTEX
  8
0
 10
93.00000000000051
 20
-30.03571428580662
 30
0.0
  0
VERTEX
  8
0
 10
87.00000000000051
 20
-30.03571428580662
 30
0.0
  0
SEQEND
  8
0
  0
CIRCLE
  8
0
 62
7
 10
60.83999999999998
 20
-34.457
 30
0.0
 40
0.5
  0
CIRCLE
  8
0
 62
7
 10
63.37999999999997
 20
-34.457
 30
0.0
 40
0.5
  0
CIRCLE
  8
0
 62
7
 10
65.91999999999996
 20
-34.456999999999965
 30
0.0
 40
0.5
  0
CIRCLE
  8
0
 62
7
 10
68.45999999999994
 20
-34.45699999999994
 30
0.0
 40
0.5
  0
CIRCLE
  8
0
 62
7
 10
70.99999999999993
 20
-34.456999999999915
 30
0.0
 40
0.5
  0
CIRCLE
  8
0
 62
7
 10
73.5399999999999
 20
-34.45699999999989
 30
0.0
 40
0.5
  0
CIRCLE
  8
0
 62
7
 10
76.0799999999999
 20
-34.456999999999866
 30
0.0
 40
0.5
  0
CIRCLE
  8
0
 62
7
 10
78.61999999999989
 20
-34.45699999999983
 30
0.0
 40
0.5
  0
CIRCLE
  8
0
 62
7
 10
81.15999999999998
 20
-34.457
 30
0.0
 40
0.5
  0
POLYLINE
  8
0
 62
7
 70
1
 66
1
 10
0.0
 20
0.0
 30
0.0
  0
VERTEX
  8
0
 10
75.02857142857138
 20
-38.000000000000036
 30
0.0
  0
VERTEX
  8
0
 10
81.02857142857138
 20
-38.000000000000036
 30
0.0
  0
VERTEX
  8
0
 10
81.02857142857138
 20
-44.000000000000036
 30
0.0
  0
VERTEX
  8
0
 10
75.02857142857138
 20
-44.000000000000036
 30
0.0
  0
SEQEND
  8
0
  0
CIRCLE
  8
0
 62
7
 10
78.02857142857141
 20
-41.00000000000001
 30
0.0
 40
1.75
  0
POLYLINE
  8
0
 62
7
 70
1
 66
1
 10
0.0
 20
0.0
 30
0.0
  0
VERTEX
  8
0
 10
67.99999999999997
 20
-38.00000000000002
 30
0.0
  0
VERTEX
  8
0
 10
73.99999999999997
 20
-38.00000000000002
 30
0.0
  0
VERTEX
  8
0
 10
73.99999999999997
 20
-44.00000000000002
 30
0.0
  0
VERTEX
  8
0
 10
67.99999999999997
 20
-44.00000000000002
 30
0.0
  0
SEQEND
  8
0
  0
CIRCLE
  8
0
 62
7
 10
70.99999999999996
 20
-41.000000000000036
 30
0.0
 40
1.75
  0
POLYLINE
  8
0
 62
7
 70
1
 66
1
 10
0.0
 20
0.0
 30
0.0
  0
VERTEX
  8
0
 10
60.971428571428554
 20
-38.0
 30
0.0
  0
VERTEX
  8
0
 10
66.97142857142855
 20
-38.0
 30
0.0
  0
VERTEX
  8
0
 10
66.97142857142855
 20
-44.0
 30
0.0
  0
VERTEX
  8
0
 10
60.971428571428554
 20
-44.0
 30
0.0
  0
SEQEND
  8
0
  0
CIRCLE
  8
0
 62
7
 10
63.97142857142855
 20
-41.00000000000001
 30
0.0
 40
1.75
  0
ENDBLK
  0
ENDSEC
  0
SECTION
  2
ENTITIES
  0
INSERT
  2
SKETCH029
  8
0
 62
7
 10
0.0
 20
0.0
 30
0.0
  0
ENDSEC
  0
EOF
