  0
SECTION
  2
HEADER
  9
$ACADVER
  1
AC1009
  9
$INSBASE
 10
0.0
 20
0.0
 30
0.0
  9
$EXTMIN
 10
0.0
 20
0.0
 30
0.0
  9
$EXTMAX
 10
0.0
 20
0.0
 30
0.0
  0
ENDSEC
  0
SECTION
  2
TABLES
  0
TABLE
  2
VPORT
 70
0
  0
ENDTAB
  0
TABLE
  2
LTYPE
 70
1
  0
LTYPE
  2
CONTINUOUS
 70
0
  3
Solid line
 72
65
 73
0
 40
0.0
  0
ENDTAB
  0
TABLE
  2
LAYER
 70
1
  0
LAYER
  2
0
 70
64
 62
7
  6
continuous
  0
ENDTAB
  0
TABLE
  2
STYLE
 70
1
  0
STYLE
  2
STANDARD
 70
0
 40
0
 41
1.0
 50
0.0
 71
0
 42
1
 3
ARIAL.TTF
 4

  0
ENDTAB
  0
TABLE
  2
VIEW
 70
0
  0
ENDTAB
  0
ENDSEC
  0
SECTION
  2
BLOCKS
  0
BLOCK
  8
0
  2
SKETCH009
 70
0
 10
0.0
 20
0.0
 30
0.0
  3
SKETCH009
  0
POLYLINE
  8
0
 62
7
 70
0
 66
1
 10
0.0
 20
0.0
 30
0.0
  0
VERTEX
  8
0
 10
83.90000030835749
 20
-84.2
 30
10.0
 42
0.4142135693943046
  0
VERTEX
  8
0
 10
93.89999999999998
 20
-74.19999945192342
 30
10.0
  0
VERTEX
  8
0
 10
93.89999999999998
 20
-0.9999995118114177
 30
10.0
 42
0.41421354846628244
  0
VERTEX
  8
0
 10
83.89999998661966
 20
8.999999999999972
 30
10.0
  0
VERTEX
  8
0
 10
-3.0000001662735296
 20
8.99999999999997
 30
10.0
 42
0.4142136705600045
  0
VERTEX
  8
0
 10
-12.999999999999257
 20
-1.0000038600055516
 30
10.0
  0
VERTEX
  8
0
 10
-13.0
 20
-74.19999984791491
 30
10.0
 42
0.41421356403533455
  0
VERTEX
  8
0
 10
-3.0000000953326946
 20
-84.2
 30
10.0
  0
VERTEX
  8
0
 10
83.900002
 20
-84.2
 30
10.0
  0
SEQEND
  8
0
  0
POLYLINE
  8
0
 62
7
 70
1
 66
1
 10
0.0
 20
0.0
 30
0.0
  0
VERTEX
  8
0
 10
13.559666666666672
 20
-8.633333333333326
 30
10.0
  0
VERTEX
  8
0
 10
13.559666666666672
 20
-45.71733333333333
 30
10.0
  0
VERTEX
  8
0
 10
8.080666666666671
 20
-45.71733333333333
 30
10.0
  0
VERTEX
  8
0
 10
8.080666666666671
 20
-8.633333333333326
 30
10.0
  0
VERTEX
  8
0
 10
10.185166666666671
 20
-8.633333333333328
 30
10.0
 42
1.0000000000000004
  0
VERTEX
  8
0
 10
11.45516666666667
 20
-8.633333333333328
 30
10.0
  0
SEQEND
  8
0
  0
POLYLINE
  8
0
 62
7
 70
1
 66
1
 10
0.0
 20
0.0
 30
0.0
  0
VERTEX
  8
0
 10
28.619333333333337
 20
-8.633333333333326
 30
10.0
  0
VERTEX
  8
0
 10
28.619333333333337
 20
-45.71733333333333
 30
10.0
  0
VERTEX
  8
0
 10
23.140333333333338
 20
-45.71733333333333
 30
10.0
  0
VERTEX
  8
0
 10
23.140333333333338
 20
-8.633333333333326
 30
10.0
  0
VERTEX
  8
0
 10
25.244833333333336
 20
-8.633333333333319
 30
10.0
 42
1.0000000000000002
  0
VERTEX
  8
0
 10
26.51483333333334
 20
-8.633333333333319
 30
10.0
  0
SEQEND
  8
0
  0
POLYLINE
  8
0
 62
7
 70
1
 66
1
 10
0.0
 20
0.0
 30
0.0
  0
VERTEX
  8
0
 10
-3.0
 20
-7.1333333333333275
 30
10.0
  0
VERTEX
  8
0
 10
0.0
 20
-7.1333333333333275
 30
10.0
  0
VERTEX
  8
0
 10
0.0
 20
-10.133333333333328
 30
10.0
  0
VERTEX
  8
0
 10
-3.0
 20
-10.133333333333328
 30
10.0
  0
SEQEND
  8
0
  0
CIRCLE
  8
0
 62
7
 10
-1.4999999999999998
 20
-8.633333333333328
 30
10.0
 40
0.875
  0
POLYLINE
  8
0
 62
7
 70
1
 66
1
 10
0.0
 20
0.0
 30
0.0
  0
VERTEX
  8
0
 10
36.7
 20
-7.1333333333333275
 30
10.0
  0
VERTEX
  8
0
 10
39.7
 20
-7.1333333333333275
 30
10.0
  0
VERTEX
  8
0
 10
39.7
 20
-10.133333333333328
 30
10.0
  0
VERTEX
  8
0
 10
36.7
 20
-10.133333333333328
 30
10.0
  0
SEQEND
  8
0
  0
CIRCLE
  8
0
 62
7
 10
38.20000000000001
 20
-8.63333333333332
 30
10.0
 40
0.875
  0
POLYLINE
  8
0
 62
7
 70
1
 66
1
 10
0.0
 20
0.0
 30
0.0
  0
VERTEX
  8
0
 10
-3.0
 20
-14.187500000000046
 30
10.0
  0
VERTEX
  8
0
 10
0.0
 20
-14.187500000000046
 30
10.0
  0
VERTEX
  8
0
 10
0.0
 20
-17.187500000000046
 30
10.0
  0
VERTEX
  8
0
 10
-3.0
 20
-17.187500000000046
 30
10.0
  0
SEQEND
  8
0
  0
CIRCLE
  8
0
 62
7
 10
-1.5000000000000009
 20
-15.687500000000048
 30
10.0
 40
0.875
  0
POLYLINE
  8
0
 62
7
 70
1
 66
1
 10
0.0
 20
0.0
 30
0.0
  0
VERTEX
  8
0
 10
36.7
 20
-14.187500000000046
 30
10.0
  0
VERTEX
  8
0
 10
39.7
 20
-14.187500000000046
 30
10.0
  0
VERTEX
  8
0
 10
39.7
 20
-17.187500000000046
 30
10.0
  0
VERTEX
  8
0
 10
36.7
 20
-17.187500000000046
 30
10.0
  0
SEQEND
  8
0
  0
CIRCLE
  8
0
 62
7
 10
38.199999999999996
 20
-15.687500000000053
 30
10.0
 40
0.875
  0
POLYLINE
  8
0
 62
7
 70
1
 66
1
 10
0.0
 20
0.0
 30
0.0
  0
VERTEX
  8
0
 10
-3.0
 20
-21.241666666666706
 30
10.0
  0
VERTEX
  8
0
 10
0.0
 20
-21.241666666666706
 30
10.0
  0
VERTEX
  8
0
 10
0.0
 20
-24.241666666666706
 30
10.0
  0
VERTEX
  8
0
 10
-3.0
 20
-24.241666666666706
 30
10.0
  0
SEQEND
  8
0
  0
CIRCLE
  8
0
 62
7
 10
-1.5000000000000007
 20
-22.741666666666706
 30
10.0
 40
0.875
  0
POLYLINE
  8
0
 62
7
 70
1
 66
1
 10
0.0
 20
0.0
 30
0.0
  0
VERTEX
  8
0
 10
36.7
 20
-21.241666666666706
 30
10.0
  0
VERTEX
  8
0
 10
39.7
 20
-21.241666666666706
 30
10.0
  0
VERTEX
  8
0
 10
39.7
 20
-24.241666666666706
 30
10.0
  0
VERTEX
  8
0
 10
36.7
 20
-24.241666666666706
 30
10.0
  0
SEQEND
  8
0
  0
CIRCLE
  8
0
 62
7
 10
38.2
 20
-22.741666666666706
 30
10.0
 40
0.875
  0
POLYLINE
  8
0
 62
7
 70
1
 66
1
 10
0.0
 20
0.0
 30
0.0
  0
VERTEX
  8
0
 10
-3.0
 20
-28.295833333333366
 30
10.0
  0
VERTEX
  8
0
 10
0.0
 20
-28.295833333333366
 30
10.0
  0
VERTEX
  8
0
 10
0.0
 20
-31.295833333333366
 30
10.0
  0
VERTEX
  8
0
 10
-3.0
 20
-31.295833333333366
 30
10.0
  0
SEQEND
  8
0
  0
CIRCLE
  8
0
 62
7
 10
-1.5000000000000004
 20
-29.795833333333366
 30
10.0
 40
0.875
  0
POLYLINE
  8
0
 62
7
 70
1
 66
1
 10
0.0
 20
0.0
 30
0.0
  0
VERTEX
  8
0
 10
36.7
 20
-28.295833333333366
 30
10.0
  0
VERTEX
  8
0
 10
39.7
 20
-28.295833333333366
 30
10.0
  0
VERTEX
  8
0
 10
39.7
 20
-31.295833333333366
 30
10.0
  0
VERTEX
  8
0
 10
36.7
 20
-31.295833333333366
 30
10.0
  0
SEQEND
  8
0
  0
CIRCLE
  8
0
 62
7
 10
38.20000000000002
 20
-29.795833333333352
 30
10.0
 40
0.875
  0
POLYLINE
  8
0
 62
7
 70
1
 66
1
 10
0.0
 20
0.0
 30
0.0
  0
VERTEX
  8
0
 10
-3.0
 20
-35.35000000000003
 30
10.0
  0
VERTEX
  8
0
 10
0.0
 20
-35.35000000000003
 30
10.0
  0
VERTEX
  8
0
 10
0.0
 20
-38.35000000000003
 30
10.0
  0
VERTEX
  8
0
 10
-3.0
 20
-38.35000000000003
 30
10.0
  0
SEQEND
  8
0
  0
CIRCLE
  8
0
 62
7
 10
-1.5000000000000002
 20
-36.85000000000003
 30
10.0
 40
0.875
  0
POLYLINE
  8
0
 62
7
 70
1
 66
1
 10
0.0
 20
0.0
 30
0.0
  0
VERTEX
  8
0
 10
36.7
 20
-35.35000000000003
 30
10.0
  0
VERTEX
  8
0
 10
39.7
 20
-35.35000000000003
 30
10.0
  0
VERTEX
  8
0
 10
39.7
 20
-38.35000000000003
 30
10.0
  0
VERTEX
  8
0
 10
36.7
 20
-38.35000000000003
 30
10.0
  0
SEQEND
  8
0
  0
CIRCLE
  8
0
 62
7
 10
38.2
 20
-36.85000000000003
 30
10.0
 40
0.875
  0
POLYLINE
  8
0
 62
7
 70
1
 66
1
 10
0.0
 20
0.0
 30
0.0
  0
VERTEX
  8
0
 10
-3.0
 20
-42.40416666666669
 30
10.0
  0
VERTEX
  8
0
 10
0.0
 20
-42.40416666666669
 30
10.0
  0
VERTEX
  8
0
 10
0.0
 20
-45.40416666666669
 30
10.0
  0
VERTEX
  8
0
 10
-3.0
 20
-45.40416666666669
 30
10.0
  0
SEQEND
  8
0
  0
CIRCLE
  8
0
 62
7
 10
-1.4999999999999996
 20
-43.90416666666669
 30
10.0
 40
0.875
  0
POLYLINE
  8
0
 62
7
 70
1
 66
1
 10
0.0
 20
0.0
 30
0.0
  0
VERTEX
  8
0
 10
36.7
 20
-42.40416666666669
 30
10.0
  0
VERTEX
  8
0
 10
39.7
 20
-42.40416666666669
 30
10.0
  0
VERTEX
  8
0
 10
39.7
 20
-45.40416666666669
 30
10.0
  0
VERTEX
  8
0
 10
36.7
 20
-45.40416666666669
 30
10.0
  0
SEQEND
  8
0
  0
CIRCLE
  8
0
 62
7
 10
38.19999999999998
 20
-43.90416666666671
 30
10.0
 40
0.875
  0
POLYLINE
  8
0
 62
7
 70
1
 66
1
 10
0.0
 20
0.0
 30
0.0
  0
VERTEX
  8
0
 10
-3.0
 20
-49.45833333333335
 30
10.0
  0
VERTEX
  8
0
 10
0.0
 20
-49.45833333333335
 30
10.0
  0
VERTEX
  8
0
 10
0.0
 20
-52.45833333333335
 30
10.0
  0
VERTEX
  8
0
 10
-3.0
 20
-52.45833333333335
 30
10.0
  0
SEQEND
  8
0
  0
CIRCLE
  8
0
 62
7
 10
-1.4999999999999987
 20
-50.95833333333335
 30
10.0
 40
0.875
  0
POLYLINE
  8
0
 62
7
 70
1
 66
1
 10
0.0
 20
0.0
 30
0.0
  0
VERTEX
  8
0
 10
36.7
 20
-49.45833333333335
 30
10.0
  0
VERTEX
  8
0
 10
39.7
 20
-49.45833333333335
 30
10.0
  0
VERTEX
  8
0
 10
39.7
 20
-52.45833333333335
 30
10.0
  0
VERTEX
  8
0
 10
36.7
 20
-52.45833333333335
 30
10.0
  0
SEQEND
  8
0
  0
CIRCLE
  8
0
 62
7
 10
38.2
 20
-50.95833333333335
 30
10.0
 40
0.875
  0
POLYLINE
  8
0
 62
7
 70
1
 66
1
 10
0.0
 20
0.0
 30
0.0
  0
VERTEX
  8
0
 10
-3.0
 20
-56.51250000000001
 30
10.0
  0
VERTEX
  8
0
 10
0.0
 20
-56.51250000000001
 30
10.0
  0
VERTEX
  8
0
 10
0.0
 20
-59.51250000000001
 30
10.0
  0
VERTEX
  8
0
 10
-3.0
 20
-59.51250000000001
 30
10.0
  0
SEQEND
  8
0
  0
CIRCLE
  8
0
 62
7
 10
-1.5
 20
-58.01250000000001
 30
10.0
 40
0.875
  0
POLYLINE
  8
0
 62
7
 70
1
 66
1
 10
0.0
 20
0.0
 30
0.0
  0
VERTEX
  8
0
 10
36.7
 20
-56.51250000000001
 30
10.0
  0
VERTEX
  8
0
 10
39.7
 20
-56.51250000000001
 30
10.0
  0
VERTEX
  8
0
 10
39.7
 20
-59.51250000000001
 30
10.0
  0
VERTEX
  8
0
 10
36.7
 20
-59.51250000000001
 30
10.0
  0
SEQEND
  8
0
  0
CIRCLE
  8
0
 62
7
 10
38.19999999999998
 20
-58.01250000000003
 30
10.0
 40
0.875
  0
POLYLINE
  8
0
 62
7
 70
1
 66
1
 10
0.0
 20
0.0
 30
0.0
  0
VERTEX
  8
0
 10
-3.0
 20
-63.56666666666667
 30
10.0
  0
VERTEX
  8
0
 10
0.0
 20
-63.56666666666667
 30
10.0
  0
VERTEX
  8
0
 10
0.0
 20
-66.56666666666666
 30
10.0
  0
VERTEX
  8
0
 10
-3.0
 20
-66.56666666666666
 30
10.0
  0
SEQEND
  8
0
  0
CIRCLE
  8
0
 62
7
 10
-1.4999999999999942
 20
-65.06666666666666
 30
10.0
 40
0.875
  0
POLYLINE
  8
0
 62
7
 70
1
 66
1
 10
0.0
 20
0.0
 30
0.0
  0
VERTEX
  8
0
 10
36.7
 20
-63.56666666666667
 30
10.0
  0
VERTEX
  8
0
 10
39.7
 20
-63.56666666666667
 30
10.0
  0
VERTEX
  8
0
 10
39.7
 20
-66.56666666666666
 30
10.0
  0
VERTEX
  8
0
 10
36.7
 20
-66.56666666666666
 30
10.0
  0
SEQEND
  8
0
  0
CIRCLE
  8
0
 62
7
 10
38.20000000000004
 20
-65.06666666666663
 30
10.0
 40
0.875
  0
CIRCLE
  8
0
 62
7
 10
48.4
 20
1.0000000000000036
 30
10.0
 40
1.5
  0
CIRCLE
  8
0
 62
7
 10
82.4
 20
1.0000000000000038
 30
10.0
 40
1.5
  0
CIRCLE
  8
0
 62
7
 10
48.4
 20
-31.999999999999996
 30
10.0
 40
1.5
  0
CIRCLE
  8
0
 62
7
 10
82.4
 20
-31.999999999999996
 30
10.0
 40
1.5
  0
POLYLINE
  8
0
 62
7
 70
1
 66
1
 10
0.0
 20
0.0
 30
0.0
  0
VERTEX
  8
0
 10
82.39999999999999
 20
-1.999999999999963
 30
10.0
 42
1.0000000000000027
  0
VERTEX
  8
0
 10
82.4
 20
3.9999999999999707
 30
10.0
  0
VERTEX
  8
0
 10
48.40000000000003
 20
3.9999999999997025
 30
10.0
 42
1.000000000000007
  0
VERTEX
  8
0
 10
48.40000000000001
 20
-1.9999999999996954
 30
10.0
  0
VERTEX
  8
0
 10
50.4
 20
-1.9999999999997833
 30
10.0
  0
VERTEX
  8
0
 10
50.4
 20
-29.000000000000135
 30
10.0
  0
VERTEX
  8
0
 10
48.4
 20
-29.000000000000146
 30
10.0
 42
1.0000000000000013
  0
VERTEX
  8
0
 10
48.400000000000006
 20
-34.99999999999985
 30
10.0
  0
VERTEX
  8
0
 10
82.3999999999997
 20
-34.999999999998245
 30
10.0
 42
1.0000000000000595
  0
VERTEX
  8
0
 10
82.39999999999996
 20
-29.000000000001748
 30
10.0
  0
VERTEX
  8
0
 10
80.39999999999999
 20
-29.000000000001705
 30
10.0
  0
VERTEX
  8
0
 10
80.39999999999999
 20
-1.9999999999999643
 30
10.0
  0
SEQEND
  8
0
  0
CIRCLE
  8
0
 62
7
 10
55.24
 20
-32.456999999999994
 30
10.0
 40
0.5
  0
CIRCLE
  8
0
 62
7
 10
57.78
 20
-32.456999999999994
 30
10.0
 40
0.5
  0
CIRCLE
  8
0
 62
7
 10
60.32
 20
-32.456999999999994
 30
10.0
 40
0.5
  0
CIRCLE
  8
0
 62
7
 10
62.86
 20
-32.456999999999994
 30
10.0
 40
0.5
  0
CIRCLE
  8
0
 62
7
 10
65.4
 20
-32.456999999999994
 30
10.0
 40
0.5
  0
CIRCLE
  8
0
 62
7
 10
67.94
 20
-32.456999999999994
 30
10.0
 40
0.5
  0
CIRCLE
  8
0
 62
7
 10
70.48
 20
-32.456999999999994
 30
10.0
 40
0.5
  0
CIRCLE
  8
0
 62
7
 10
73.02
 20
-32.456999999999994
 30
10.0
 40
0.5
  0
CIRCLE
  8
0
 62
7
 10
75.56
 20
-32.456999999999994
 30
10.0
 40
0.5
  0
POLYLINE
  8
0
 62
7
 70
1
 66
1
 10
0.0
 20
0.0
 30
0.0
  0
VERTEX
  8
0
 10
53.900000000000006
 20
-2.4999999999999893
 30
10.0
  0
VERTEX
  8
0
 10
76.9
 20
-2.4999999999999893
 30
10.0
  0
VERTEX
  8
0
 10
76.9
 20
-28.49999999999999
 30
10.0
  0
VERTEX
  8
0
 10
53.900000000000006
 20
-28.49999999999999
 30
10.0
  0
SEQEND
  8
0
  0
POLYLINE
  8
0
 62
7
 70
1
 66
1
 10
0.0
 20
0.0
 30
0.0
  0
VERTEX
  8
0
 10
35.495000000000005
 20
-49.21
 30
10.0
  0
VERTEX
  8
0
 10
1.2050000000000125
 20
-49.21
 30
10.0
  0
VERTEX
  8
0
 10
1.2050000000000445
 20
-68.35000041203838
 30
10.0
 42
0.41421283002120524
  0
VERTEX
  8
0
 10
3.654994286042713
 20
-70.79999999999333
 30
10.0
  0
VERTEX
  8
0
 10
32.95498676039821
 20
-70.79999999996548
 30
10.0
 42
0.4142129873318132
  0
VERTEX
  8
0
 10
35.49499999993461
 20
-68.26001822641972
 30
10.0
  0
SEQEND
  8
0
  0
CIRCLE
  8
0
 62
7
 10
3.9990000000000085
 20
-67.99999999999999
 30
10.0
 40
1.27
  0
CIRCLE
  8
0
 62
7
 10
32.70100000000001
 20
-67.99999999999999
 30
10.0
 40
1.27
  0
CIRCLE
  8
0
 62
7
 10
4.380000000000009
 20
-51.62
 30
10.0
 40
0.499872
  0
CIRCLE
  8
0
 62
7
 10
6.920000000000009
 20
-51.62
 30
10.0
 40
0.499872
  0
CIRCLE
  8
0
 62
7
 10
9.460000000000008
 20
-51.62
 30
10.0
 40
0.499872
  0
CIRCLE
  8
0
 62
7
 10
12.000000000000009
 20
-51.62
 30
10.0
 40
0.499872
  0
CIRCLE
  8
0
 62
7
 10
14.540000000000008
 20
-51.62
 30
10.0
 40
0.499872
  0
CIRCLE
  8
0
 62
7
 10
17.08000000000001
 20
-51.62
 30
10.0
 40
0.499872
  0
CIRCLE
  8
0
 62
7
 10
19.620000000000008
 20
-51.62
 30
10.0
 40
0.499872
  0
CIRCLE
  8
0
 62
7
 10
22.160000000000007
 20
-51.62
 30
10.0
 40
0.499872
  0
CIRCLE
  8
0
 62
7
 10
24.70000000000001
 20
-51.62
 30
10.0
 40
0.499872
  0
CIRCLE
  8
0
 62
7
 10
27.24000000000001
 20
-51.62
 30
10.0
 40
0.499872
  0
CIRCLE
  8
0
 62
7
 10
29.78000000000001
 20
-51.62
 30
10.0
 40
0.499872
  0
CIRCLE
  8
0
 62
7
 10
32.32000000000001
 20
-51.62
 30
10.0
 40
0.499872
  0
POLYLINE
  8
0
 62
7
 70
1
 66
1
 10
0.0
 20
0.0
 30
0.0
  0
VERTEX
  8
0
 10
46.9
 20
-5.333333333333324
 30
10.0
  0
VERTEX
  8
0
 10
49.9
 20
-5.333333333333324
 30
10.0
  0
VERTEX
  8
0
 10
49.9
 20
-8.333333333333325
 30
10.0
  0
VERTEX
  8
0
 10
46.9
 20
-8.333333333333325
 30
10.0
  0
SEQEND
  8
0
  0
CIRCLE
  8
0
 62
7
 10
48.4
 20
-6.833333333333325
 30
10.0
 40
0.875
  0
POLYLINE
  8
0
 62
7
 70
1
 66
1
 10
0.0
 20
0.0
 30
0.0
  0
VERTEX
  8
0
 10
83.89999999999999
 20
-8.333333333333325
 30
10.0
  0
VERTEX
  8
0
 10
80.89999999999999
 20
-8.333333333333325
 30
10.0
  0
VERTEX
  8
0
 10
80.89999999999999
 20
-5.333333333333324
 30
10.0
  0
VERTEX
  8
0
 10
83.89999999999999
 20
-5.333333333333324
 30
10.0
  0
SEQEND
  8
0
  0
CIRCLE
  8
0
 62
7
 10
82.39999999999999
 20
-6.833333333333322
 30
10.0
 40
0.875
  0
POLYLINE
  8
0
 62
7
 70
1
 66
1
 10
0.0
 20
0.0
 30
0.0
  0
VERTEX
  8
0
 10
46.9
 20
-13.999999999999993
 30
10.0
  0
VERTEX
  8
0
 10
49.9
 20
-13.999999999999993
 30
10.0
  0
VERTEX
  8
0
 10
49.9
 20
-16.999999999999993
 30
10.0
  0
VERTEX
  8
0
 10
46.9
 20
-16.999999999999993
 30
10.0
  0
SEQEND
  8
0
  0
CIRCLE
  8
0
 62
7
 10
48.40000000000003
 20
-15.499999999999966
 30
10.0
 40
0.875
  0
POLYLINE
  8
0
 62
7
 70
1
 66
1
 10
0.0
 20
0.0
 30
0.0
  0
VERTEX
  8
0
 10
80.89999999999999
 20
-13.999999999999991
 30
10.0
  0
VERTEX
  8
0
 10
83.89999999999999
 20
-13.999999999999991
 30
10.0
  0
VERTEX
  8
0
 10
83.89999999999999
 20
-16.999999999999993
 30
10.0
  0
VERTEX
  8
0
 10
80.89999999999999
 20
-16.999999999999993
 30
10.0
  0
SEQEND
  8
0
  0
CIRCLE
  8
0
 62
7
 10
82.4
 20
-15.499999999999977
 30
10.0
 40
0.875
  0
POLYLINE
  8
0
 62
7
 70
1
 66
1
 10
0.0
 20
0.0
 30
0.0
  0
VERTEX
  8
0
 10
46.9
 20
-22.666666666666657
 30
10.0
  0
VERTEX
  8
0
 10
49.9
 20
-22.666666666666657
 30
10.0
  0
VERTEX
  8
0
 10
49.9
 20
-25.666666666666657
 30
10.0
  0
VERTEX
  8
0
 10
46.9
 20
-25.666666666666657
 30
10.0
  0
SEQEND
  8
0
  0
CIRCLE
  8
0
 62
7
 10
48.39999999999999
 20
-24.166666666666664
 30
10.0
 40
0.875
  0
POLYLINE
  8
0
 62
7
 70
1
 66
1
 10
0.0
 20
0.0
 30
0.0
  0
VERTEX
  8
0
 10
80.89999999999999
 20
-22.666666666666657
 30
10.0
  0
VERTEX
  8
0
 10
83.89999999999999
 20
-22.666666666666657
 30
10.0
  0
VERTEX
  8
0
 10
83.89999999999999
 20
-25.666666666666657
 30
10.0
  0
VERTEX
  8
0
 10
80.89999999999999
 20
-25.666666666666657
 30
10.0
  0
SEQEND
  8
0
  0
CIRCLE
  8
0
 62
7
 10
82.39999999999995
 20
-24.166666666666693
 30
10.0
 40
0.875
  0
POLYLINE
  8
0
 62
7
 70
1
 66
1
 10
0.0
 20
0.0
 30
0.0
  0
VERTEX
  8
0
 10
65.39999999999995
 20
-38.79000000000011
 30
10.0
  0
VERTEX
  8
0
 10
68.39999999999995
 20
-38.79000000000011
 30
10.0
  0
VERTEX
  8
0
 10
68.39999999999995
 20
-41.79000000000011
 30
10.0
  0
VERTEX
  8
0
 10
65.39999999999995
 20
-41.79000000000011
 30
10.0
  0
SEQEND
  8
0
  0
CIRCLE
  8
0
 62
7
 10
66.9
 20
-40.29000000000007
 30
10.0
 40
0.875
  0
POLYLINE
  8
0
 62
7
 70
1
 66
1
 10
0.0
 20
0.0
 30
0.0
  0
VERTEX
  8
0
 10
43.099986865201586
 20
-68.48000464426457
 30
10.0
  0
VERTEX
  8
0
 10
43.03646725126565
 20
-50.72000124817494
 30
10.0
 42
-0.4162506403057522
  0
VERTEX
  8
0
 10
45.64809318464491
 20
-48.106460852753614
 30
10.0
  0
VERTEX
  8
0
 10
91.34999931621778
 20
-48.17001345956254
 30
10.0
 42
-0.41652309409267396
  0
VERTEX
  8
0
 10
93.89998626499423
 20
-50.720011673777705
 30
10.0
  0
VERTEX
  8
0
 10
93.900002
 20
-57.055012
 30
10.0
  0
VERTEX
  8
0
 10
93.38999999999969
 20
-57.570012501227
 30
10.0
  0
VERTEX
  8
0
 10
93.38999999999969
 20
-61.630012501227
 30
10.0
  0
VERTEX
  8
0
 10
93.89999999999999
 20
-62.145012501227
 30
10.0
  0
VERTEX
  8
0
 10
93.90001268633364
 20
-68.48001066316468
 30
10.0
 42
-0.41652039738414726
  0
VERTEX
  8
0
 10
91.35000011984016
 20
-71.03001287699561
 30
10.0
  0
VERTEX
  8
0
 10
45.65000187317883
 20
-71.03001287699419
 30
10.0
 42
-0.4165213761711043
  0
SEQEND
  8
0
  0
CIRCLE
  8
0
 62
7
 10
91.35999976876185
 20
-68.49000000000002
 30
10.0
 40
1.213591
  0
CIRCLE
  8
0
 62
7
 10
91.360001
 20
-50.709999
 30
10.0
 40
1.203291
  0
CIRCLE
  8
0
 62
7
 10
45.639999
 20
-68.489998
 30
10.0
 40
1.261573
  0
CIRCLE
  8
0
 62
7
 10
45.639999
 20
-50.709999
 30
10.0
 40
1.270715
  0
CIRCLE
  8
0
 62
7
 10
49.450001
 20
-49.440014
 30
10.0
 40
0.524166
  0
CIRCLE
  8
0
 62
7
 10
51.990002000000004
 20
-49.440014
 30
10.0
 40
0.524166
  0
CIRCLE
  8
0
 62
7
 10
54.530003
 20
-49.440014
 30
10.0
 40
0.524166
  0
CIRCLE
  8
0
 62
7
 10
57.070004
 20
-49.440014
 30
10.0
 40
0.524166
  0
CIRCLE
  8
0
 62
7
 10
59.610005
 20
-49.440014
 30
10.0
 40
0.524166
  0
CIRCLE
  8
0
 62
7
 10
62.150006000000005
 20
-49.440014
 30
10.0
 40
0.524166
  0
CIRCLE
  8
0
 62
7
 10
64.69000700000001
 20
-49.440014
 30
10.0
 40
0.524166
  0
CIRCLE
  8
0
 62
7
 10
67.230008
 20
-49.440014
 30
10.0
 40
0.524166
  0
CIRCLE
  8
0
 62
7
 10
69.770009
 20
-49.440014
 30
10.0
 40
0.524166
  0
CIRCLE
  8
0
 62
7
 10
72.31001
 20
-49.440014
 30
10.0
 40
0.524166
  0
CIRCLE
  8
0
 62
7
 10
74.850011
 20
-49.440014
 30
10.0
 40
0.524166
  0
CIRCLE
  8
0
 62
7
 10
77.390012
 20
-49.440014
 30
10.0
 40
0.524166
  0
CIRCLE
  8
0
 62
7
 10
49.44999999999985
 20
-69.76001287699562
 30
10.0
 40
0.502377
  0
CIRCLE
  8
0
 62
7
 10
51.99000199999985
 20
-69.76000987699561
 30
10.0
 40
0.502377
  0
CIRCLE
  8
0
 62
7
 10
54.53000399999985
 20
-69.76000687699562
 30
10.0
 40
0.502377
  0
CIRCLE
  8
0
 62
7
 10
57.07000599999985
 20
-69.76000387699561
 30
10.0
 40
0.502377
  0
CIRCLE
  8
0
 62
7
 10
59.610007999999844
 20
-69.76000087699562
 30
10.0
 40
0.502377
  0
CIRCLE
  8
0
 62
7
 10
62.150009999999845
 20
-69.75999787699561
 30
10.0
 40
0.502377
  0
CIRCLE
  8
0
 62
7
 10
64.69001199999985
 20
-69.75999487699562
 30
10.0
 40
0.502377
  0
CIRCLE
  8
0
 62
7
 10
67.23001399999984
 20
-69.75999187699561
 30
10.0
 40
0.502377
  0
CIRCLE
  8
0
 62
7
 10
69.77001599999984
 20
-69.75998887699562
 30
10.0
 40
0.502377
  0
CIRCLE
  8
0
 62
7
 10
72.31001799999984
 20
-69.75998587699561
 30
10.0
 40
0.502377
  0
CIRCLE
  8
0
 62
7
 10
74.85001999999984
 20
-69.75998287699562
 30
10.0
 40
0.502377
  0
CIRCLE
  8
0
 62
7
 10
77.39002199999985
 20
-69.75997987699562
 30
10.0
 40
0.502377
  0
CIRCLE
  8
0
 62
7
 10
79.93002399999985
 20
-69.75997687699562
 30
10.0
 40
0.502377
  0
CIRCLE
  8
0
 62
7
 10
82.47002599999985
 20
-69.75997387699562
 30
10.0
 40
0.502377
  0
CIRCLE
  8
0
 62
7
 10
85.01002799999983
 20
-69.75997087699562
 30
10.0
 40
0.502377
  0
CIRCLE
  8
0
 62
7
 10
87.55002999999985
 20
-69.75996787699562
 30
10.0
 40
0.502377
  0
ENDBLK
  0
ENDSEC
  0
SECTION
  2
ENTITIES
  0
INSERT
  2
SKETCH009
  8
0
 62
7
 10
0.0
 20
0.0
 30
0.0
  0
ENDSEC
  0
EOF
