0
SECTION
2
HEADER
9
$INSUNITS
70
4
9
$ACADVER
1
AC1014
9
$HANDSEED
5
FFFF
0
ENDSEC
0
SECTION
2
TABLES
0
TABLE
2
VPORT
5
8
100
AcDbSymbolTable
0
ENDTAB
0
TABLE
2
LTYPE
5
5
100
AcDbSymbolTable
0
LTYPE
5
14
100
AcDbSymbolTableRecord
100
AcDbLinetypeTableRecord
2
BYBLOCK
70
0
0
LTYPE
5
15
100
AcDbSymbolTableRecord
100
AcDbLinetypeTableRecord
2
BYLAYER
70
0
0
ENDTAB
0
TABLE
2
LAYER
5
2
100
AcDbSymbolTable
70
2
0
LAYER
5
50
100
AcDbSymbolTableRecord
100
AcDbLayerTableRecord
2
0
70
0
6
CONTINUOUS
0
ENDTAB
0
TABLE
2
STYLE
5
3
100
AcDbSymbolTable
70
1
0
STYLE
5
11
100
AcDbSymbolTableRecord
100
AcDbTextStyleTableRecord
2
STANDARD
70
0
0
ENDTAB
0
TABLE
2
VIEW
5
6
100
AcDbSymbolTable
70
0
0
ENDTAB
0
TABLE
2
UCS
5
7
100
AcDbSymbolTable
70
0
0
ENDTAB
0
TABLE
2
APPID
5
9
100
AcDbSymbolTable
70
2
0
APPID
5
12
100
AcDbSymbolTableRecord
100
AcDbRegAppTableRecord
2
ACAD
70
0
0
ENDTAB
0
TABLE
2
DIMSTYLE
5
A
100
AcDbSymbolTable
70
1
0
ENDTAB
0
TABLE
2
BLOCK_RECORD
5
1
100
AcDbSymbolTable
70
1
0
BLOCK_RECORD
5
1F
100
AcDbSymbolTableRecord
100
AcDbBlockTableRecord
2
*MODEL_SPACE
0
BLOCK_RECORD
5
1B
100
AcDbSymbolTableRecord
100
AcDbBlockTableRecord
2
*PAPER_SPACE
0
ENDTAB
0
ENDSEC
0
SECTION
2
BLOCKS
0
BLOCK
5
20
100
AcDbEntity
100
AcDbBlockBegin
2
*MODEL_SPACE
0
ENDBLK
5
21
100
AcDbEntity
100
AcDbBlockEnd
0
BLOCK
5
1C
100
AcDbEntity
100
AcDbBlockBegin
2
*PAPER_SPACE
0
ENDBLK
5
1D
100
AcDbEntity
100
AcDbBlockEnd
0
ENDSEC
0
SECTION
2
ENTITIES
0
CIRCLE
5
100
100
AcDbEntity
8
0
100
AcDbCircle
10
-30.34333333333332
20
57.932747980009331
30
0
40
1.6243317001324231
210
0
220
-0
230
1
0
CIRCLE
5
101
100
AcDbEntity
8
0
100
AcDbCircle
10
-22.723333333333319
20
57.932747980009331
30
0
40
1.6243317001324231
210
0
220
-0
230
1
0
CIRCLE
5
102
100
AcDbEntity
8
0
100
AcDbCircle
10
-15.103333333333318
20
57.932747980009331
30
0
40
1.6243317001324231
210
0
220
-0
230
1
0
CIRCLE
5
103
100
AcDbEntity
8
0
100
AcDbCircle
10
-7.4833333333333174
20
57.932747980009339
30
0
40
1.6243317001324231
210
0
220
-0
230
1
0
CIRCLE
5
104
100
AcDbEntity
8
0
100
AcDbCircle
10
0.1366666666666827
20
57.932747980009339
30
0
40
1.6243317001324231
210
0
220
-0
230
1
0
CIRCLE
5
105
100
AcDbEntity
8
0
100
AcDbCircle
10
7.7566666666666828
20
57.932747980009339
30
0
40
1.6243317001324231
210
0
220
-0
230
1
0
CIRCLE
5
106
100
AcDbEntity
8
0
100
AcDbCircle
10
15.376666666666683
20
57.932747980009339
30
0
40
1.6243317001324231
210
0
220
-0
230
1
0
CIRCLE
5
107
100
AcDbEntity
8
0
100
AcDbCircle
10
22.996666666666677
20
57.932747980009339
30
0
40
1.6243317001324231
210
0
220
-0
230
1
0
CIRCLE
5
108
100
AcDbEntity
8
0
100
AcDbCircle
10
30.616666666666681
20
57.932747980009353
30
0
40
1.6243317001324231
210
0
220
-0
230
1
0
CIRCLE
5
109
100
AcDbEntity
8
0
100
AcDbCircle
10
15.376666666666683
20
57.932747980009339
30
0
40
1.6243317001324231
210
0
220
-0
230
1
0
CIRCLE
5
110
100
AcDbEntity
8
0
100
AcDbCircle
10
30.616666666666681
20
17.232747980009361
30
0
40
1.6243317001324231
210
0
220
0
230
1
0
CIRCLE
5
111
100
AcDbEntity
8
0
100
AcDbCircle
10
22.996666666666677
20
17.232747980009361
30
0
40
1.6243317001324231
210
0
220
0
230
1
0
CIRCLE
5
112
100
AcDbEntity
8
0
100
AcDbCircle
10
15.376666666666683
20
17.232747980009357
30
0
40
1.6243317001324231
210
0
220
0
230
1
0
CIRCLE
5
113
100
AcDbEntity
8
0
100
AcDbCircle
10
7.7566666666666828
20
17.232747980009357
30
0
40
1.6243317001324231
210
0
220
0
230
1
0
CIRCLE
5
114
100
AcDbEntity
8
0
100
AcDbCircle
10
0.1366666666666827
20
17.232747980009353
30
0
40
1.6243317001324231
210
0
220
0
230
1
0
CIRCLE
5
115
100
AcDbEntity
8
0
100
AcDbCircle
10
7.7566666666666828
20
17.232747980009357
30
0
40
1.6243317001324231
210
0
220
0
230
1
0
CIRCLE
5
116
100
AcDbEntity
8
0
100
AcDbCircle
10
-7.4833333333333174
20
17.232747980009353
30
0
40
1.6243317001324231
210
0
220
0
230
1
0
CIRCLE
5
117
100
AcDbEntity
8
0
100
AcDbCircle
10
-15.103333333333318
20
17.23274798000935
30
0
40
1.6243317001324231
210
0
220
0
230
1
0
CIRCLE
5
118
100
AcDbEntity
8
0
100
AcDbCircle
10
-22.723333333333319
20
17.23274798000935
30
0
40
1.6243317001324231
210
0
220
0
230
1
0
CIRCLE
5
119
100
AcDbEntity
8
0
100
AcDbCircle
10
-30.34333333333332
20
17.232747980009346
30
0
40
1.6243317001324231
210
0
220
0
230
1
0
CIRCLE
5
120
100
AcDbEntity
8
0
100
AcDbCircle
10
12.067270666666818
20
-1.2630393567691334
30
0
40
1.6243317001324231
210
0
220
-0
230
1
0
CIRCLE
5
121
100
AcDbEntity
8
0
100
AcDbCircle
10
19.687270666666819
20
-1.2630393567691334
30
0
40
1.6243317001324231
210
0
220
-0
230
1
0
CIRCLE
5
122
100
AcDbEntity
8
0
100
AcDbCircle
10
27.307270666666817
20
-1.2630393567691334
30
0
40
1.6243317001324231
210
0
220
-0
230
1
0
CIRCLE
5
123
100
AcDbEntity
8
0
100
AcDbCircle
10
-3.1752693333331727
20
-18.992239356769137
30
0
40
1.6452775865108835
210
0
220
-0
230
1
0
CIRCLE
5
124
100
AcDbEntity
8
0
100
AcDbCircle
10
12.067270666666797
20
-35.271464683212187
30
0
40
1.6243317001324231
210
0
220
0
230
1
0
CIRCLE
5
125
100
AcDbEntity
8
0
100
AcDbCircle
10
19.687270666666798
20
-35.271464683212187
30
0
40
1.6243317001324231
210
0
220
0
230
1
0
CIRCLE
5
126
100
AcDbEntity
8
0
100
AcDbCircle
10
27.307270666666795
20
-35.271464683212187
30
0
40
1.6243317001324231
210
0
220
0
230
1
0
CIRCLE
5
127
100
AcDbEntity
8
0
100
AcDbCircle
10
2.7271886661222746
20
-20.803009356751097
30
0
40
0.49987200000003895
210
0
220
0
230
1
0
CIRCLE
5
128
100
AcDbEntity
8
0
100
AcDbCircle
10
2.7271886661222737
20
-18.263009356751102
30
0
40
0.49987200000003895
210
0
220
0
230
1
0
CIRCLE
5
129
100
AcDbEntity
8
0
100
AcDbCircle
10
2.7271886661222733
20
-15.723009356751108
30
0
40
0.49987200000003895
210
0
220
0
230
1
0
CIRCLE
5
130
100
AcDbEntity
8
0
100
AcDbCircle
10
2.727188666122272
20
-13.183009356751112
30
0
40
0.49987200000003895
210
0
220
0
230
1
0
CIRCLE
5
131
100
AcDbEntity
8
0
100
AcDbCircle
10
2.7271886661222715
20
-10.643009356751117
30
0
40
0.49987200000003895
210
0
220
0
230
1
0
CIRCLE
5
132
100
AcDbEntity
8
0
100
AcDbCircle
10
2.7271886661222711
20
-8.1030093567511212
30
0
40
0.49987200000003895
210
0
220
0
230
1
0
CIRCLE
5
133
100
AcDbEntity
8
0
100
AcDbCircle
10
2.7271886661222751
20
-23.343009356751097
30
0
40
0.49987200000003895
210
0
220
0
230
1
0
CIRCLE
5
134
100
AcDbEntity
8
0
100
AcDbCircle
10
2.7271886661222755
20
-25.883009356751092
30
0
40
0.49987200000003895
210
0
220
0
230
1
0
CIRCLE
5
135
100
AcDbEntity
8
0
100
AcDbCircle
10
2.7271886661222764
20
-28.423009356751088
30
0
40
0.49987200000003895
210
0
220
0
230
1
0
LINE
5
136
100
AcDbEntity
8
0
100
AcDbLine
10
1.0307862904877751
20
-34.00677384217645
30
0
11
1.0137940464384878
21
-36.506716094237916
31
0
0
LINE
5
137
100
AcDbEntity
8
0
100
AcDbLine
10
1.0137940464384878
20
-36.506716094237916
30
0
11
3.1703114226931506
21
-37.77140293528263
31
0
0
LINE
5
138
100
AcDbEntity
8
0
100
AcDbLine
10
3.1703114226931506
20
-37.77140293528263
30
0
11
5.3438210429970994
21
-36.536147524265886
31
0
0
LINE
5
139
100
AcDbEntity
8
0
100
AcDbLine
10
5.3438210429970994
20
-36.536147524265886
30
0
11
5.3608132870463852
21
-34.036205272204427
31
0
0
LINE
5
140
100
AcDbEntity
8
0
100
AcDbLine
10
3.204295910791723
20
-32.771518431159706
30
0
11
1.0307862904877751
21
-34.00677384217645
31
0
0
LINE
5
141
100
AcDbEntity
8
0
100
AcDbLine
10
5.3608132870463852
20
-34.036205272204427
30
0
11
3.204295910791723
21
-32.771518431159706
31
0
0
LINE
5
142
100
AcDbEntity
8
0
100
AcDbLine
10
5.35236117612786
20
-2.5130433567601518
30
0
11
5.3523611761278609
21
-0.013043356760156222
31
0
0
LINE
5
143
100
AcDbEntity
8
0
100
AcDbLine
10
5.3523611761278609
20
-0.013043356760156222
30
0
11
3.1872976666667685
21
1.236956643239842
31
0
0
LINE
5
144
100
AcDbEntity
8
0
100
AcDbLine
10
3.1872976666667685
20
1.236956643239842
30
0
11
1.0222341572056757
21
-0.013043356760154556
31
0
0
LINE
5
145
100
AcDbEntity
8
0
100
AcDbLine
10
1.0222341572056757
20
-0.013043356760154556
30
0
11
1.0222341572056739
21
-2.5130433567601496
31
0
0
LINE
5
146
100
AcDbEntity
8
0
100
AcDbLine
10
1.0222341572056739
20
-2.5130433567601496
30
0
11
3.1872976666667681
21
-3.7630433567601491
31
0
0
LINE
5
147
100
AcDbEntity
8
0
100
AcDbLine
10
3.1872976666667681
20
-3.7630433567601491
30
0
11
5.35236117612786
21
-2.5130433567601518
31
0
0
LINE
5
148
100
AcDbEntity
8
0
100
AcDbLine
10
38.352295176127868
20
-0.013043356760110147
30
0
11
36.187231666666776
21
1.23695664323989
31
0
0
LINE
5
149
100
AcDbEntity
8
0
100
AcDbLine
10
36.187231666666776
20
1.23695664323989
30
0
11
34.022168157205684
21
-0.013043356760105151
31
0
0
LINE
5
150
100
AcDbEntity
8
0
100
AcDbLine
10
34.022168157205684
20
-0.013043356760105151
30
0
11
34.022168157205684
21
-2.5130433567601003
31
0
0
LINE
5
151
100
AcDbEntity
8
0
100
AcDbLine
10
34.022168157205684
20
-2.5130433567601003
30
0
11
36.187231666666776
21
-3.7630433567601012
31
0
0
LINE
5
152
100
AcDbEntity
8
0
100
AcDbLine
10
38.352295176127868
20
-2.5130433567601056
30
0
11
38.352295176127868
21
-0.013043356760110147
31
0
0
LINE
5
153
100
AcDbEntity
8
0
100
AcDbLine
10
36.187231666666776
20
-3.7630433567601012
30
0
11
38.352295176127868
21
-2.5130433567601056
31
0
0
LINE
5
154
100
AcDbEntity
8
0
100
AcDbLine
10
34.021133375132628
20
-34.014769368056015
30
0
11
34.023204425661611
21
-36.514768510205812
31
0
0
LINE
5
155
100
AcDbEntity
8
0
100
AcDbLine
10
34.023204425661611
20
-36.514768510205812
30
0
11
36.189302717467122
21
-37.762974498910083
31
0
0
LINE
5
156
100
AcDbEntity
8
0
100
AcDbLine
10
36.189302717467122
20
-37.762974498910083
30
0
11
38.353329958743657
21
-36.511181345464571
31
0
0
LINE
5
157
100
AcDbEntity
8
0
100
AcDbLine
10
38.353329958743657
20
-36.511181345464571
30
0
11
38.351258908214675
21
-34.011182203314775
31
0
0
LINE
5
158
100
AcDbEntity
8
0
100
AcDbLine
10
36.185160616409156
20
-32.762976214610504
30
0
11
34.021133375132628
21
-34.014769368056015
31
0
0
LINE
5
159
100
AcDbEntity
8
0
100
AcDbLine
10
38.351258908214675
20
-34.011182203314775
30
0
11
36.185160616409156
21
-32.762976214610504
31
0
0
LINE
5
160
100
AcDbEntity
8
0
100
AcDbLine
10
39.187225666666833
20
-1.263042827287066
30
0
11
39.187231667361267
21
-35.2629748272862
31
0
0
ARC
5
161
100
AcDbEntity
8
0
100
AcDbCircle
10
36.187231666938139
20
-35.262975356760293
30
0
40
3.0000000004231775
210
0
220
0
230
1
100
AcDbArc
50
-179.83794198594325
51
1.010198601586461e-05
0
LINE
5
162
100
AcDbEntity
8
0
100
AcDbLine
10
33.187243666666589
20
-33.27146468321223
30
0
11
33.18724366666649
21
-35.2714606832212
31
0
0
LINE
5
163
100
AcDbEntity
8
0
100
AcDbLine
10
33.187243666666589
20
-33.27146468321223
30
0
11
6.1872976666666002
21
-33.27146468321218
31
0
0
ARC
5
164
100
AcDbEntity
8
0
100
AcDbCircle
10
36.187231666666776
20
-1.2630433567601056
30
0
40
2.9999940000001035
210
0
220
-0
230
1
100
AcDbArc
50
1.010198601586461e-05
51
180
0
LINE
5
165
100
AcDbEntity
8
0
100
AcDbLine
10
33.187243666666809
20
-3.2630393567690992
30
0
11
33.187243666666816
21
-1.2630433567601012
31
0
0
LINE
5
166
100
AcDbEntity
8
0
100
AcDbLine
10
6.1872976666668098
20
-3.2630393567691356
30
0
11
33.187243666666809
21
-3.2630393567690992
31
0
0
LINE
5
167
100
AcDbEntity
8
0
100
AcDbLine
10
6.1872976666668098
20
-3.2630393567691356
30
0
11
6.1872976666668098
21
-1.2630433567601536
31
0
0
ARC
5
168
100
AcDbEntity
8
0
100
AcDbCircle
10
3.1872976666667681
20
-1.2630433567601536
30
0
40
3.0000000000000422
210
-0
220
0
230
1
100
AcDbArc
50
0
51
180.162058014086
0
LINE
5
169
100
AcDbEntity
8
0
100
AcDbLine
10
0.18730966681826303
20
-1.2715286832214994
30
0
11
0.18730966681826608
21
-35.271460683221164
31
0
0
ARC
5
170
100
AcDbEntity
8
0
100
AcDbCircle
10
3.1873036667424421
20
-35.271460683221164
30
0
40
2.9999939999241754
210
0
220
0
230
1
100
AcDbArc
50
-180
51
0
0
LINE
5
171
100
AcDbEntity
8
0
100
AcDbLine
10
6.1872976666666011
20
-33.27146468321218
30
0
11
6.1872976666666224
21
-35.271460683221171
31
0
0
LINE
5
172
100
AcDbEntity
8
0
100
AcDbLine
10
-13.106969691575598
20
-0.45023935676914428
30
0
11
-13.106968710370383
21
-37.534239504621979
31
0
0
LINE
5
173
100
AcDbEntity
8
0
100
AcDbLine
10
-13.106968710370383
20
-37.534239504621979
30
0
11
-7.5189687103703857
21
-37.534239356769142
31
0
0
LINE
5
174
100
AcDbEntity
8
0
100
AcDbLine
10
-7.5189687103703822
20
-0.45023935676912763
30
0
11
-13.106969691575598
21
-0.45023935676914428
31
0
0
LINE
5
175
100
AcDbEntity
8
0
100
AcDbLine
10
-7.5189687103703857
20
-37.534239356769142
30
0
11
-7.5189687103703822
21
-0.45023935676912874
31
0
0
ARC
5
176
100
AcDbEntity
8
0
100
AcDbCircle
10
-10.31296920097299
20
-0.45023935676914473
30
0
40
1.9886715714615022
210
0
220
0
230
1
100
AcDbArc
50
-180
51
0
0
LINE
5
177
100
AcDbEntity
8
0
100
AcDbLine
10
28.011654758677452
20
40.011257218390682
30
0
11
-9.072345078773477
21
40.011257218394114
31
0
0
LINE
5
178
100
AcDbEntity
8
0
100
AcDbLine
10
-9.072345078773477
20
40.011257218394114
30
0
11
-9.0723452413224379
21
34.42325721839758
31
0
0
LINE
5
179
100
AcDbEntity
8
0
100
AcDbLine
10
28.011654758677473
20
34.42325721839758
30
0
11
28.011654758677452
21
40.011257218390682
31
0
0
LINE
5
180
100
AcDbEntity
8
0
100
AcDbLine
10
-9.0723452413224379
20
34.42325721839758
30
0
11
28.011654758677473
21
34.42325721839758
31
0
0
ARC
5
181
100
AcDbEntity
8
0
100
AcDbCircle
10
28.011654758677452
20
37.217257218394124
30
0
40
1.8432880588233402
210
0
220
-0
230
1
100
AcDbArc
50
89.999999999999332
51
269.99999999999955
0
ARC
5
182
100
AcDbEntity
8
0
100
AcDbCircle
10
-23.535000000000032
20
52.187261980009332
30
0
40
2.5399999999999956
210
0
220
-0
230
1
100
AcDbArc
50
0
51
90
0
LINE
5
183
100
AcDbEntity
8
0
100
AcDbLine
10
-23.535000000000032
20
54.727261980009331
30
0
11
-40.044999999999987
21
54.727261980009331
31
0
0
ARC
5
184
100
AcDbEntity
8
0
100
AcDbCircle
10
-40.044999999999987
20
52.187261980009332
30
0
40
2.5399999999999956
210
0
220
-0
230
1
100
AcDbArc
50
90
51
180
0
LINE
5
185
100
AcDbEntity
8
0
100
AcDbLine
10
-42.58499999999998
20
52.187261980009332
30
0
11
-42.58499999999998
21
22.978233980009332
31
0
0
ARC
5
186
100
AcDbEntity
8
0
100
AcDbCircle
10
-40.044999999999987
20
22.978233980009332
30
0
40
2.5399999999999956
210
0
220
0
230
1
100
AcDbArc
50
180
51
270
0
LINE
5
187
100
AcDbEntity
8
0
100
AcDbLine
10
-40.044999999999987
20
20.438233980009336
30
0
11
-23.535000000000011
21
20.438233980009336
31
0
0
LINE
5
188
100
AcDbEntity
8
0
100
AcDbLine
10
-20.995000000000033
20
22.978233980009314
30
0
11
-20.995000000000033
21
52.187261980009332
31
0
0
ARC
5
189
100
AcDbEntity
8
0
100
AcDbCircle
10
-23.535000000000011
20
22.978233980009314
30
0
40
2.5399999999999778
210
-0
220
0
230
1
100
AcDbArc
50
-90
51
0
0
LINE
5
190
100
AcDbEntity
8
0
100
AcDbLine
10
-39.790999999999954
20
25.731261980009336
30
0
11
-41.956063509461046
21
24.481261980009336
31
0
0
LINE
5
191
100
AcDbEntity
8
0
100
AcDbLine
10
-41.956063509461046
20
24.481261980009336
30
0
11
-41.956063509461046
21
21.981261980009343
31
0
0
LINE
5
192
100
AcDbEntity
8
0
100
AcDbLine
10
-41.956063509461046
20
21.981261980009343
30
0
11
-39.790999999999954
21
20.731261980009336
31
0
0
LINE
5
193
100
AcDbEntity
8
0
100
AcDbLine
10
-39.790999999999954
20
20.731261980009336
30
0
11
-37.625936490538855
21
21.981261980009336
31
0
0
LINE
5
194
100
AcDbEntity
8
0
100
AcDbLine
10
-37.625936490538855
20
24.481261980009336
30
0
11
-39.790999999999954
21
25.731261980009336
31
0
0
LINE
5
195
100
AcDbEntity
8
0
100
AcDbLine
10
-37.625936490538855
20
21.981261980009336
30
0
11
-37.625936490538855
21
24.481261980009336
31
0
0
LINE
5
196
100
AcDbEntity
8
0
100
AcDbLine
10
-37.625936490538855
20
53.183261980009334
30
0
11
-39.790999999999947
21
54.433261980009334
31
0
0
LINE
5
197
100
AcDbEntity
8
0
100
AcDbLine
10
-39.790999999999947
20
54.433261980009334
30
0
11
-41.956063509461039
21
53.183261980009334
31
0
0
LINE
5
198
100
AcDbEntity
8
0
100
AcDbLine
10
-41.956063509461039
20
53.183261980009334
30
0
11
-41.956063509461039
21
50.683261980009334
31
0
0
LINE
5
199
100
AcDbEntity
8
0
100
AcDbLine
10
-41.956063509461039
20
50.683261980009334
30
0
11
-39.79099999999994
21
49.433261980009348
31
0
0
LINE
5
200
100
AcDbEntity
8
0
100
AcDbLine
10
-37.625936490538848
20
50.683261980009334
30
0
11
-37.625936490538855
21
53.183261980009334
31
0
0
LINE
5
201
100
AcDbEntity
8
0
100
AcDbLine
10
-39.79099999999994
20
49.433261980009348
30
0
11
-37.625936490538848
21
50.683261980009334
31
0
0
CIRCLE
5
202
100
AcDbEntity
8
0
100
AcDbCircle
10
-23.535000000000039
20
51.552261980009334
30
0
40
0.49987201613311549
210
0
220
0
230
1
0
CIRCLE
5
203
100
AcDbEntity
8
0
100
AcDbCircle
10
-23.535000000000039
20
49.012261980009342
30
0
40
0.49987201613311549
210
0
220
0
230
1
0
CIRCLE
5
204
100
AcDbEntity
8
0
100
AcDbCircle
10
-23.535000000000039
20
46.47226198000935
30
0
40
0.49987201613311549
210
0
220
0
230
1
0
CIRCLE
5
205
100
AcDbEntity
8
0
100
AcDbCircle
10
-23.535000000000039
20
43.932261980009351
30
0
40
0.49987201613311549
210
0
220
0
230
1
0
CIRCLE
5
206
100
AcDbEntity
8
0
100
AcDbCircle
10
-23.535000000000039
20
41.392261980009351
30
0
40
0.49987201613311549
210
0
220
0
230
1
0
CIRCLE
5
207
100
AcDbEntity
8
0
100
AcDbCircle
10
-23.535000000000039
20
38.852261980009366
30
0
40
0.49987201613311549
210
0
220
0
230
1
0
CIRCLE
5
208
100
AcDbEntity
8
0
100
AcDbCircle
10
-23.535000000000039
20
36.312261980009367
30
0
40
0.49987201613311549
210
0
220
0
230
1
0
CIRCLE
5
209
100
AcDbEntity
8
0
100
AcDbCircle
10
-23.535000000000039
20
33.772261980009375
30
0
40
0.49987201613311549
210
0
220
0
230
1
0
CIRCLE
5
210
100
AcDbEntity
8
0
100
AcDbCircle
10
-23.535000000000039
20
31.232261980009376
30
0
40
0.49987201613311549
210
0
220
0
230
1
0
CIRCLE
5
211
100
AcDbEntity
8
0
100
AcDbCircle
10
-23.535000000000039
20
28.692261980009381
30
0
40
0.49987201613311549
210
0
220
0
230
1
0
CIRCLE
5
212
100
AcDbEntity
8
0
100
AcDbCircle
10
-23.535000000000039
20
26.152261980009385
30
0
40
0.49987201613311549
210
0
220
0
230
1
0
CIRCLE
5
213
100
AcDbEntity
8
0
100
AcDbCircle
10
-23.535000000000039
20
23.612261980009389
30
0
40
0.49987201613311549
210
0
220
0
230
1
0
LINE
5
214
100
AcDbEntity
8
0
100
AcDbLine
10
-17.676063509461084
20
6.3121353167877547
30
0
11
-35.456063509461075
21
6.3121353167877459
31
0
0
ARC
5
215
100
AcDbEntity
8
0
100
AcDbCircle
10
-17.676063509461084
20
3.7721353167877592
30
0
40
2.5399999999999956
210
-0
220
0
230
1
100
AcDbArc
50
0
51
90
0
LINE
5
216
100
AcDbEntity
8
0
100
AcDbLine
10
-19.84112701892218
20
5.0221353167877592
30
0
11
-19.84112701892218
21
2.5221353167877636
31
0
0
LINE
5
217
100
AcDbEntity
8
0
100
AcDbLine
10
-19.84112701892218
20
2.5221353167877636
30
0
11
-17.676063509461084
21
1.2721353167877636
31
0
0
LINE
5
218
100
AcDbEntity
8
0
100
AcDbLine
10
-17.676063509461084
20
1.2721353167877636
30
0
11
-15.51099999999999
21
2.5221353167877614
31
0
0
LINE
5
219
100
AcDbEntity
8
0
100
AcDbLine
10
-15.51099999999999
20
2.5221353167877614
30
0
11
-15.51099999999999
21
5.0221353167877574
31
0
0
LINE
5
220
100
AcDbEntity
8
0
100
AcDbLine
10
-17.676063509461084
20
6.2721353167877547
30
0
11
-19.84112701892218
21
5.0221353167877592
31
0
0
LINE
5
221
100
AcDbEntity
8
0
100
AcDbLine
10
-15.51099999999999
20
5.0221353167877574
30
0
11
-17.676063509461084
21
6.2721353167877547
31
0
0
LINE
5
222
100
AcDbEntity
8
0
100
AcDbLine
10
-15.136063509461071
20
-41.947864683212245
30
0
11
-15.136063509461088
21
3.7721353167877592
31
0
0
ARC
5
223
100
AcDbEntity
8
0
100
AcDbCircle
10
-16.405936509461092
20
-0.037864683212225358
30
0
40
0.49987200000000342
210
-0
220
0
230
1
100
AcDbArc
50
-90
51
90
0
ARC
5
224
100
AcDbEntity
8
0
100
AcDbCircle
10
-16.406190509461098
20
-0.037864683212225358
30
0
40
0.49987200000000342
210
0
220
-0
230
1
100
AcDbArc
50
90
51
270
0
LINE
5
225
100
AcDbEntity
8
0
100
AcDbLine
10
-35.456063509461075
20
6.2721353167877458
30
0
11
-37.621127018922166
21
5.0221353167877503
31
0
0
LINE
5
226
100
AcDbEntity
8
0
100
AcDbLine
10
-37.621127018922166
20
5.0221353167877503
30
0
11
-37.621127018922166
21
2.5221353167877547
31
0
0
LINE
5
227
100
AcDbEntity
8
0
100
AcDbLine
10
-37.621127018922166
20
2.5221353167877547
30
0
11
-35.456063509461075
21
1.2721353167877547
31
0
0
LINE
5
228
100
AcDbEntity
8
0
100
AcDbLine
10
-35.456063509461075
20
1.2721353167877547
30
0
11
-33.290999999999976
21
2.5221353167877525
31
0
0
LINE
5
229
100
AcDbEntity
8
0
100
AcDbLine
10
-33.290999999999976
20
5.0221353167877485
30
0
11
-35.456063509461075
21
6.2721353167877458
31
0
0
LINE
5
230
100
AcDbEntity
8
0
100
AcDbLine
10
-33.290999999999976
20
2.5221353167877525
30
0
11
-33.290999999999976
21
5.0221353167877485
31
0
0
CIRCLE
5
231
100
AcDbEntity
8
0
100
AcDbCircle
10
-35.456063509461075
20
3.7721353167877503
30
0
40
1.2700000000000002
210
0
220
0
230
1
0
ARC
5
232
100
AcDbEntity
8
0
100
AcDbCircle
10
-36.725936509461086
20
-0.03786468321223424
30
0
40
0.49987200000000342
210
-0
220
0
230
1
100
AcDbArc
50
-90
51
90
0
ARC
5
233
100
AcDbEntity
8
0
100
AcDbCircle
10
-36.72619050946107
20
-0.03786468321223424
30
0
40
0.49987200000000342
210
0
220
-0
230
1
100
AcDbArc
50
90
51
270
0
LINE
5
234
100
AcDbEntity
8
0
100
AcDbLine
10
-37.996063509461081
20
3.7721353167877503
30
0
11
-37.996063509461067
21
-41.947864683212245
31
0
0
ARC
5
235
100
AcDbEntity
8
0
100
AcDbCircle
10
-35.456063509461075
20
3.7721353167877503
30
0
40
2.5399999999999956
210
0
220
-0
230
1
100
AcDbArc
50
90
51
180
0
LINE
5
236
100
AcDbEntity
8
0
100
AcDbLine
10
-19.841127018922169
20
-40.697864683212245
30
0
11
-19.841127018922172
21
-43.197864683212245
31
0
0
LINE
5
237
100
AcDbEntity
8
0
100
AcDbLine
10
-19.841127018922172
20
-43.197864683212245
30
0
11
-17.676063509461073
21
-44.447864683212245
31
0
0
LINE
5
238
100
AcDbEntity
8
0
100
AcDbLine
10
-17.676063509461073
20
-44.447864683212245
30
0
11
-15.51099999999998
21
-43.197864683212245
31
0
0
LINE
5
239
100
AcDbEntity
8
0
100
AcDbLine
10
-15.51099999999998
20
-43.197864683212245
30
0
11
-15.51099999999998
21
-40.697864683212245
31
0
0
LINE
5
240
100
AcDbEntity
8
0
100
AcDbLine
10
-17.676063509461073
20
-39.447864683212245
30
0
11
-19.841127018922169
21
-40.697864683212245
31
0
0
LINE
5
241
100
AcDbEntity
8
0
100
AcDbLine
10
-15.51099999999998
20
-40.697864683212245
30
0
11
-17.676063509461073
21
-39.447864683212245
31
0
0
ARC
5
242
100
AcDbEntity
8
0
100
AcDbCircle
10
-17.676063509461073
20
-41.947864683212245
30
0
40
2.5399999999999956
210
-0
220
0
230
1
100
AcDbArc
50
-89.999999999999844
51
0
0
ARC
5
243
100
AcDbEntity
8
0
100
AcDbCircle
10
-35.456063509461053
20
-41.947864683212245
30
0
40
2.5400000000000134
210
0
220
0
230
1
100
AcDbArc
50
180
51
270
0
LINE
5
244
100
AcDbEntity
8
0
100
AcDbLine
10
-28.598063509461067
20
-43.979864683212227
30
0
11
-24.534063509461053
21
-43.979864683212227
31
0
0
LINE
5
245
100
AcDbEntity
8
0
100
AcDbLine
10
-29.106063509461055
20
-44.487864683212223
30
0
11
-28.598063509461067
21
-43.979864683212227
31
0
0
LINE
5
246
100
AcDbEntity
8
0
100
AcDbLine
10
-24.534063509461053
20
-43.979864683212227
30
0
11
-24.026063509461064
21
-44.487864683212237
31
0
0
LINE
5
247
100
AcDbEntity
8
0
100
AcDbLine
10
-24.026063509461064
20
-44.487864683212237
30
0
11
-17.676063509461066
21
-44.487864683212237
31
0
0
LINE
5
248
100
AcDbEntity
8
0
100
AcDbLine
10
-35.456063509461053
20
-44.487864683212223
30
0
11
-29.106063509461055
21
-44.487864683212223
31
0
0
LINE
5
249
100
AcDbEntity
8
0
100
AcDbLine
10
-35.456063509461053
20
-39.447864683212252
30
0
11
-37.621127018922145
21
-40.697864683212245
31
0
0
LINE
5
250
100
AcDbEntity
8
0
100
AcDbLine
10
-37.621127018922145
20
-40.697864683212245
30
0
11
-37.621127018922145
21
-43.197864683212231
31
0
0
LINE
5
251
100
AcDbEntity
8
0
100
AcDbLine
10
-37.621127018922145
20
-43.197864683212231
30
0
11
-35.456063509461053
21
-44.447864683212231
31
0
0
LINE
5
252
100
AcDbEntity
8
0
100
AcDbLine
10
-35.456063509461053
20
-44.447864683212231
30
0
11
-33.290999999999961
21
-43.197864683212245
31
0
0
LINE
5
253
100
AcDbEntity
8
0
100
AcDbLine
10
-33.290999999999961
20
-40.697864683212252
30
0
11
-35.456063509461053
21
-39.447864683212252
31
0
0
LINE
5
254
100
AcDbEntity
8
0
100
AcDbLine
10
-33.290999999999961
20
-43.197864683212245
30
0
11
-33.290999999999961
21
-40.697864683212252
31
0
0
ARC
5
255
100
AcDbEntity
8
0
100
AcDbCircle
10
-35.453523509461071
20
-41.947864683212245
30
0
40
1.2499339999999926
210
-0
220
0
230
1
100
AcDbArc
50
-90
51
90
0
ARC
5
256
100
AcDbEntity
8
0
100
AcDbCircle
10
-35.458603509461057
20
-41.947864683212245
30
0
40
1.2499340000000103
210
0
220
-0
230
1
100
AcDbArc
50
90
51
270
0
ARC
5
257
100
AcDbEntity
8
0
100
AcDbCircle
10
-17.673523509461077
20
-41.947864683212245
30
0
40
1.2499339999999926
210
-0
220
0
230
1
100
AcDbArc
50
-89.999999999999503
51
90.000000000000327
0
ARC
5
258
100
AcDbEntity
8
0
100
AcDbCircle
10
-17.678603509461077
20
-41.947864683212245
30
0
40
1.2499340000000103
210
0
220
-0
230
1
100
AcDbArc
50
90
51
270
0
ARC
5
259
100
AcDbEntity
8
0
100
AcDbCircle
10
-16.405936509461078
20
-38.137864683212243
30
0
40
0.49987200000000342
210
-0
220
0
230
1
100
AcDbArc
50
-90
51
90
0
ARC
5
260
100
AcDbEntity
8
0
100
AcDbCircle
10
-16.406190509461069
20
-38.137864683212243
30
0
40
0.49987200000000342
210
0
220
-0
230
1
100
AcDbArc
50
90
51
270
0
ARC
5
261
100
AcDbEntity
8
0
100
AcDbCircle
10
-36.725936509461064
20
-27.977864683212221
30
0
40
0.49987200000000342
210
-0
220
0
230
1
100
AcDbArc
50
-90
51
90
0
ARC
5
262
100
AcDbEntity
8
0
100
AcDbCircle
10
-36.726190509461048
20
-27.977864683212221
30
0
40
0.49987200000000342
210
0
220
-0
230
1
100
AcDbArc
50
90
51
270
0
CIRCLE
5
263
100
AcDbEntity
8
0
100
AcDbCircle
10
-17.676063509461084
20
3.7721353167877592
30
0
40
1.2700000000000002
210
0
220
0
230
1
0
ARC
5
264
100
AcDbEntity
8
0
100
AcDbCircle
10
-16.405936509461078
20
-35.597864683212222
30
0
40
0.49987200000000342
210
-0
220
0
230
1
100
AcDbArc
50
-90
51
90
0
ARC
5
265
100
AcDbEntity
8
0
100
AcDbCircle
10
-16.406190509461069
20
-35.597864683212222
30
0
40
0.49987200000000342
210
0
220
-0
230
1
100
AcDbArc
50
90
51
270
0
ARC
5
266
100
AcDbEntity
8
0
100
AcDbCircle
10
-16.406190509461069
20
-33.05786468321223
30
0
40
0.49987199999998566
210
0
220
-0
230
1
100
AcDbArc
50
90
51
270
0
ARC
5
267
100
AcDbEntity
8
0
100
AcDbCircle
10
-16.405936509461078
20
-33.05786468321223
30
0
40
0.49987200000000342
210
-0
220
0
230
1
100
AcDbArc
50
-90
51
90
0
ARC
5
268
100
AcDbEntity
8
0
100
AcDbCircle
10
-16.405936509461078
20
-30.517864683212235
30
0
40
0.49987200000000342
210
-0
220
0
230
1
100
AcDbArc
50
-90
51
90
0
ARC
5
269
100
AcDbEntity
8
0
100
AcDbCircle
10
-16.406190509461069
20
-30.517864683212235
30
0
40
0.49987200000000342
210
0
220
-0
230
1
100
AcDbArc
50
90
51
270
0
ARC
5
270
100
AcDbEntity
8
0
100
AcDbCircle
10
-16.405936509461078
20
-27.977864683212221
30
0
40
0.49987200000000342
210
-0
220
0
230
1
100
AcDbArc
50
-90
51
90
0
ARC
5
271
100
AcDbEntity
8
0
100
AcDbCircle
10
-16.406190509461069
20
-27.977864683212221
30
0
40
0.49987200000000342
210
0
220
-0
230
1
100
AcDbArc
50
90
51
270
0
ARC
5
272
100
AcDbEntity
8
0
100
AcDbCircle
10
-16.405936509461078
20
-25.437864683212226
30
0
40
0.49987199999998566
210
-0
220
0
230
1
100
AcDbArc
50
-90
51
90
0
ARC
5
273
100
AcDbEntity
8
0
100
AcDbCircle
10
-16.406190509461069
20
-25.437864683212226
30
0
40
0.49987200000000342
210
0
220
-0
230
1
100
AcDbArc
50
90
51
270
0
ARC
5
274
100
AcDbEntity
8
0
100
AcDbCircle
10
-16.405936509461085
20
-22.897864683212248
30
0
40
0.4998719999999679
210
-0
220
0
230
1
100
AcDbArc
50
-90
51
90
0
ARC
5
275
100
AcDbEntity
8
0
100
AcDbCircle
10
-16.406190509461076
20
-22.897864683212248
30
0
40
0.49987200000000342
210
0
220
0
230
1
100
AcDbArc
50
90.000000000001208
51
270.0000000000008
0
ARC
5
276
100
AcDbEntity
8
0
100
AcDbCircle
10
-16.405936509461085
20
-20.357864683212235
30
0
40
0.49987200000000342
210
-0
220
0
230
1
100
AcDbArc
50
-90
51
90
0
ARC
5
277
100
AcDbEntity
8
0
100
AcDbCircle
10
-16.406190509461087
20
-20.357864683212235
30
0
40
0.49987200000000342
210
0
220
-0
230
1
100
AcDbArc
50
90
51
270
0
ARC
5
278
100
AcDbEntity
8
0
100
AcDbCircle
10
-16.406190509461087
20
-17.817864683212221
30
0
40
0.49987199999998566
210
0
220
-0
230
1
100
AcDbArc
50
90
51
270
0
ARC
5
279
100
AcDbEntity
8
0
100
AcDbCircle
10
-16.405936509461085
20
-17.817864683212221
30
0
40
0.49987200000000342
210
-0
220
0
230
1
100
AcDbArc
50
-90
51
90
0
ARC
5
280
100
AcDbEntity
8
0
100
AcDbCircle
10
-16.405936509461085
20
-15.277864683212243
30
0
40
0.49987199999998566
210
-0
220
0
230
1
100
AcDbArc
50
-90
51
90
0
ARC
5
281
100
AcDbEntity
8
0
100
AcDbCircle
10
-16.406190509461087
20
-15.277864683212243
30
0
40
0.49987200000000342
210
0
220
-0
230
1
100
AcDbArc
50
90
51
270
0
ARC
5
282
100
AcDbEntity
8
0
100
AcDbCircle
10
-16.405936509461085
20
-12.73786468321223
30
0
40
0.49987200000000342
210
-0
220
0
230
1
100
AcDbArc
50
-90
51
90
0
ARC
5
283
100
AcDbEntity
8
0
100
AcDbCircle
10
-16.406190509461087
20
-12.73786468321223
30
0
40
0.49987200000000342
210
0
220
-0
230
1
100
AcDbArc
50
90
51
270
0
ARC
5
284
100
AcDbEntity
8
0
100
AcDbCircle
10
-16.405936509461085
20
-10.197864683212234
30
0
40
0.49987200000000342
210
-0
220
0
230
1
100
AcDbArc
50
-90
51
90
0
ARC
5
285
100
AcDbEntity
8
0
100
AcDbCircle
10
-16.406190509461087
20
-10.197864683212234
30
0
40
0.49987199999998566
210
0
220
-0
230
1
100
AcDbArc
50
90
51
270
0
ARC
5
286
100
AcDbEntity
8
0
100
AcDbCircle
10
-16.405936509461085
20
-7.6578646832122388
30
0
40
0.49987200000000342
210
-0
220
0
230
1
100
AcDbArc
50
-90
51
90
0
ARC
5
287
100
AcDbEntity
8
0
100
AcDbCircle
10
-16.406190509461087
20
-7.6578646832122388
30
0
40
0.49987200000000342
210
0
220
-0
230
1
100
AcDbArc
50
90
51
270
0
ARC
5
288
100
AcDbEntity
8
0
100
AcDbCircle
10
-16.405936509461085
20
-5.1178646832122254
30
0
40
0.49987200000000342
210
-0
220
0
230
1
100
AcDbArc
50
-90
51
90
0
ARC
5
289
100
AcDbEntity
8
0
100
AcDbCircle
10
-16.406190509461087
20
-5.1178646832122254
30
0
40
0.49987199999998566
210
0
220
-0
230
1
100
AcDbArc
50
90
51
270
0
ARC
5
290
100
AcDbEntity
8
0
100
AcDbCircle
10
-16.406190509461098
20
-2.5778646832122387
30
0
40
0.49987200000000342
210
0
220
-0
230
1
100
AcDbArc
50
90
51
270
0
ARC
5
291
100
AcDbEntity
8
0
100
AcDbCircle
10
-16.405936509461092
20
-2.5778646832122387
30
0
40
0.49987200000000342
210
-0
220
0
230
1
100
AcDbArc
50
-90
51
90
0
ARC
5
292
100
AcDbEntity
8
0
100
AcDbCircle
10
-36.725936509461086
20
-2.5778646832122476
30
0
40
0.49987200000000342
210
-0
220
0
230
1
100
AcDbArc
50
-90
51
90
0
ARC
5
293
100
AcDbEntity
8
0
100
AcDbCircle
10
-36.72619050946107
20
-2.5778646832122476
30
0
40
0.49987200000000342
210
0
220
-0
230
1
100
AcDbArc
50
90
51
270
0
ARC
5
294
100
AcDbEntity
8
0
100
AcDbCircle
10
-36.726190509461041
20
-5.1178646832122432
30
0
40
0.49987200000000342
210
0
220
-0
230
1
100
AcDbArc
50
90
51
270
0
ARC
5
295
100
AcDbEntity
8
0
100
AcDbCircle
10
-36.725936509461057
20
-5.1178646832122432
30
0
40
0.49987200000000342
210
-0
220
0
230
1
100
AcDbArc
50
-90
51
90
0
ARC
5
296
100
AcDbEntity
8
0
100
AcDbCircle
10
-36.725936509461057
20
-7.6578646832122388
30
0
40
0.49987200000000342
210
-0
220
0
230
1
100
AcDbArc
50
-90
51
90
0
ARC
5
297
100
AcDbEntity
8
0
100
AcDbCircle
10
-36.726190509461041
20
-7.6578646832122388
30
0
40
0.49987200000000342
210
0
220
-0
230
1
100
AcDbArc
50
90
51
270
0
ARC
5
298
100
AcDbEntity
8
0
100
AcDbCircle
10
-36.726190509461041
20
-10.197864683212234
30
0
40
0.49987199999998566
210
0
220
-0
230
1
100
AcDbArc
50
90
51
270
0
ARC
5
299
100
AcDbEntity
8
0
100
AcDbCircle
10
-36.725936509461057
20
-10.197864683212234
30
0
40
0.49987200000000342
210
-0
220
0
230
1
100
AcDbArc
50
-90
51
90
0
ARC
5
300
100
AcDbEntity
8
0
100
AcDbCircle
10
-36.725936509461057
20
-12.73786468321223
30
0
40
0.49987200000000342
210
-0
220
0
230
1
100
AcDbArc
50
-90
51
90
0
ARC
5
301
100
AcDbEntity
8
0
100
AcDbCircle
10
-36.726190509461041
20
-12.73786468321223
30
0
40
0.49987200000000342
210
0
220
-0
230
1
100
AcDbArc
50
90
51
270
0
ARC
5
302
100
AcDbEntity
8
0
100
AcDbCircle
10
-36.725936509461057
20
-15.277864683212243
30
0
40
0.49987200000000342
210
-0
220
0
230
1
100
AcDbArc
50
-90
51
90
0
ARC
5
303
100
AcDbEntity
8
0
100
AcDbCircle
10
-36.726190509461041
20
-15.277864683212243
30
0
40
0.49987200000000342
210
0
220
-0
230
1
100
AcDbArc
50
90
51
270
0
ARC
5
304
100
AcDbEntity
8
0
100
AcDbCircle
10
-36.726190509461048
20
-17.817864683212239
30
0
40
0.49987200000000342
210
0
220
-0
230
1
100
AcDbArc
50
90
51
270
0
ARC
5
305
100
AcDbEntity
8
0
100
AcDbCircle
10
-36.725936509461064
20
-17.817864683212239
30
0
40
0.49987200000000342
210
-0
220
0
230
1
100
AcDbArc
50
-90
51
90
0
ARC
5
306
100
AcDbEntity
8
0
100
AcDbCircle
10
-36.725936509461064
20
-20.357864683212235
30
0
40
0.49987200000000342
210
-0
220
0
230
1
100
AcDbArc
50
-90
51
90
0
ARC
5
307
100
AcDbEntity
8
0
100
AcDbCircle
10
-36.726190509461048
20
-20.357864683212235
30
0
40
0.49987200000000342
210
0
220
-0
230
1
100
AcDbArc
50
90
51
270
0
ARC
5
308
100
AcDbEntity
8
0
100
AcDbCircle
10
-36.726190509461048
20
-22.897864683212248
30
0
40
0.49987200000000342
210
0
220
-0
230
1
100
AcDbArc
50
90
51
270
0
ARC
5
309
100
AcDbEntity
8
0
100
AcDbCircle
10
-36.725936509461064
20
-22.897864683212248
30
0
40
0.49987199999998566
210
-0
220
0
230
1
100
AcDbArc
50
-90
51
90
0
ARC
5
310
100
AcDbEntity
8
0
100
AcDbCircle
10
-36.726190509461048
20
-25.437864683212226
30
0
40
0.49987200000000342
210
0
220
-0
230
1
100
AcDbArc
50
90
51
270
0
ARC
5
311
100
AcDbEntity
8
0
100
AcDbCircle
10
-36.725936509461064
20
-25.437864683212226
30
0
40
0.49987200000000342
210
-0
220
0
230
1
100
AcDbArc
50
-90
51
90
0
LWPOLYLINE
5
312
100
AcDbEntity
8
0
100
AcDbPolyline
90
17
70
1
43
0.0
10
-46.956063509461046
20
45.330641648398554
10
-46.956063509461039
20
57.149147980009346
42
-0.41421356237309531
10
-37.456063509461053
20
66.649147980009346
10
33.852295176127896
20
66.649147980009303
42
-0.40862862226007735
10
43.350561336240212
20
57.330641648398611
42
-0.0047764760776548574
10
43.352295176127896
20
57.149147980009324
10
43.352295176127896
20
47.582747980009337
42
0.00039791723950866216
10
43.336378494119685
20
47.58273531296301
42
0.99920448207187329
10
43.352295176127853
20
27.582747980009348
10
43.352295176127939
20
-17.669358351601456
10
43.352295176127939
20
-29.66935835160146
10
43.352295176127939
20
-34.487864683212251
42
-0.41421356237309492
10
33.852295176127953
20
-43.987864683212223
10
-37.456063509461053
20
-43.98786468321223
42
-0.41421356237309548
10
-46.956063509461046
20
-34.487864683212223
10
-46.956063509461046
20
-29.669358351601449
10
-46.956063509461046
20
-17.669358351601456
0
LWPOLYLINE
5
313
100
AcDbEntity
8
0
100
AcDbPolyline
90
16
70
1
43
0.0
10
40.352295176127939
20
-29.66935835160146
10
40.352295176127946
20
-34.487864683212251
42
-0.41421356237309503
10
33.852295176127953
20
-40.987864683212223
10
-37.456063509461053
20
-40.987864683212223
42
-0.4142135623730957
10
-43.956063509461046
20
-34.487864683212223
10
-43.956063509461046
20
-29.669358351601449
10
-43.956063509461046
20
-17.669358351601456
10
-43.956063509461046
20
45.330641648398554
10
-43.956063509461046
20
57.149147980009346
42
-0.41421356237309587
10
-37.456063509461053
20
63.649147980009346
10
33.852295176127903
20
63.649147980009303
42
-0.4086286222600769
10
40.351108864625793
20
57.273327858380945
42
-0.0047764760776548574
10
40.352295176127903
20
57.149147980009324
10
40.352295176127903
20
50.231858620682871
42
0.79056941504209388
10
40.352295176127868
20
24.933637339335828
10
40.352295176127939
20
-17.669358351601456
0
LINE
5
314
100
AcDbEntity
8
0
100
AcDbLine
10
-33.290999999999961
20
-40.987864683212223
30
0
11
-33.290999999999961
21
-40.697864683212252
31
0
0
LINE
5
315
100
AcDbEntity
8
0
100
AcDbLine
10
-35.456063509461053
20
-39.447864683212252
30
0
11
-33.290999999999961
21
-40.697864683212252
31
0
0
LINE
5
316
100
AcDbEntity
8
0
100
AcDbLine
10
-35.456063509461053
20
-39.447864683212252
30
0
11
-37.621127018922145
21
-40.697864683212245
31
0
0
LINE
5
317
100
AcDbEntity
8
0
100
AcDbLine
10
-37.621127018922145
20
-40.697864683212245
30
0
11
-37.621127018922145
21
-40.985768501971343
31
0
0
LINE
5
318
100
AcDbEntity
8
0
100
AcDbLine
10
-15.510999999999981
20
-40.987864683212223
30
0
11
-15.51099999999998
21
-40.697864683212245
31
0
0
LINE
5
319
100
AcDbEntity
8
0
100
AcDbLine
10
-15.51099999999998
20
-40.697864683212245
30
0
11
-17.676063509461073
21
-39.447864683212245
31
0
0
LINE
5
320
100
AcDbEntity
8
0
100
AcDbLine
10
-17.676063509461073
20
-39.447864683212245
30
0
11
-19.841127018922169
21
-40.697864683212245
31
0
0
LINE
5
321
100
AcDbEntity
8
0
100
AcDbLine
10
-19.841127018922169
20
-40.697864683212245
30
0
11
-19.841127018922169
21
-40.987864683212223
31
0
0
ENDSEC
0
SECTION
2
OBJECTS
0
DICTIONARY
5
C
100
AcDbDictionary
3
ACAD_GROUP
350
D
3
ACAD_MLINESTYLE
350
17
0
DICTIONARY
5
D
100
AcDbDictionary
0
DICTIONARY
5
1A
330
C
100
AcDbDictionary
0
DICTIONARY
5
17
100
AcDbDictionary
0
ENDSEC
0
EOF
